<?xml version="1.0" encoding="UTF-8" standalone="no"?>
<!DOCTYPE svg PUBLIC "-//W3C//DTD SVG 1.1//EN" "http://www.w3.org/Graphics/SVG/1.1/DTD/svg11.dtd">
<svg width="100%" height="100%" viewBox="0 0 2048 2048" version="1.1" xmlns="http://www.w3.org/2000/svg" xmlns:xlink="http://www.w3.org/1999/xlink" xml:space="preserve" xmlns:serif="http://www.serif.com/" style="fill-rule:evenodd;clip-rule:evenodd;stroke-linejoin:round;stroke-miterlimit:2;">
    <g>
        <path d="M1691.96,1207.94L1692.56,1207.94L1692.32,1207.94L1691.96,1207.94ZM1689.71,1207.94L1690.23,1207.94L1689.88,1207.94L1689.71,1207.94ZM1697.33,1207.94L1697.07,1207.94L1697.68,1207.94L1697.33,1207.94ZM1687.17,1207.93L1687.57,1207.94L1687.47,1207.93L1687.17,1207.93ZM1699.9,1207.93L1699.54,1207.93L1700.05,1207.93L1699.9,1207.93ZM1684.83,1207.92L1685.43,1207.93L1685.12,1207.93L1684.83,1207.92ZM1702.51,1207.92L1702.39,1207.92L1702.82,1207.91L1702.51,1207.92ZM1682.75,1207.91L1683.02,1207.91L1682.81,1207.91L1682.75,1207.91ZM1705.15,1207.9L1704.81,1207.9L1705.44,1207.9L1705.15,1207.9ZM1678.02,1207.88C1678.94,1207.89 1679.88,1207.89 1680.84,1207.9L1678.02,1207.88ZM1707.83,1207.88L1707.68,1207.88L1707.86,1207.88L1707.83,1207.88ZM1675.15,1207.85L1677.4,1207.87L1676.16,1207.86L1675.15,1207.85ZM1710.54,1207.85L1710.33,1207.85L1710.91,1207.84L1710.54,1207.85ZM1671.83,1207.81C1672.69,1207.82 1673.57,1207.83 1674.47,1207.84L1671.83,1207.81ZM1713.29,1207.82L1712.92,1207.82L1713.49,1207.81L1713.29,1207.82ZM1669.21,1207.78L1671.43,1207.81L1669.96,1207.79L1669.21,1207.78ZM1716.08,1207.78L1716.03,1207.78L1716.25,1207.77L1716.08,1207.78ZM1668.54,1207.77L1666.09,1207.74C1666.89,1207.75 1667.71,1207.76 1668.54,1207.77ZM1718.89,1207.73L1718.58,1207.74L1719.21,1207.73L1718.89,1207.73ZM1721.73,1207.68L1721.48,1207.68L1721.81,1207.68L1721.73,1207.68ZM1726.07,1207.59L1724.45,1207.63C1724.99,1207.62 1725.53,1207.6 1726.07,1207.59ZM1727.51,1207.56L1726.59,1207.58L1727.92,1207.55L1727.51,1207.56ZM1728.97,1207.53L1728.62,1207.53L1730.02,1207.5L1728.97,1207.53ZM1731.91,1207.45L1730.7,1207.48L1732.21,1207.44L1731.91,1207.45ZM1733.39,1207.41L1732.94,1207.42L1734.19,1207.39L1733.39,1207.41ZM1736.56,1207.32L1734.84,1207.37C1735.41,1207.36 1735.98,1207.34 1736.56,1207.32ZM1737.87,1207.28L1737.31,1207.3L1738.5,1207.26L1737.87,1207.28ZM1740.97,1207.18L1739.25,1207.24C1739.82,1207.22 1740.39,1207.2 1740.97,1207.18ZM1742.4,1207.14L1741.72,1207.16L1742.89,1207.12L1742.4,1207.14ZM1743.92,1207.08L1743.7,1207.09L1745.26,1207.04L1743.92,1207.08ZM1746.98,1206.97L1746.14,1207L1747.35,1206.96L1746.98,1206.97ZM1748.52,1206.91L1748.21,1206.92L1749.44,1206.88L1748.52,1206.91ZM1751.61,1206.79L1750.54,1206.83L1751.86,1206.78L1751.61,1206.79ZM1753.16,1206.72L1752.75,1206.74L1753.86,1206.69L1753.16,1206.72ZM1756.41,1206.58L1754.7,1206.65C1755.27,1206.63 1755.84,1206.6 1756.41,1206.58ZM1757.84,1206.51L1757.33,1206.54L1758.39,1206.49L1757.84,1206.51ZM1761.01,1206.36L1759.31,1206.44C1759.88,1206.41 1760.44,1206.39 1761.01,1206.36ZM1762.55,1206.28L1761.94,1206.31L1762.97,1206.26L1762.55,1206.28ZM1764.13,1206.2L1763.95,1206.21L1765.17,1206.14L1764.13,1206.2ZM1767.3,1206.03L1766.57,1206.07L1767.6,1206.01L1767.3,1206.03ZM1768.88,1205.94L1768.61,1205.96L1769.64,1205.9L1768.88,1205.94ZM1772.07,1205.76L1771.19,1205.81L1772.26,1205.75L1772.07,1205.76ZM1773.66,1205.66L1773.31,1205.68L1774.26,1205.62L1773.66,1205.66ZM1776.86,1205.46L1775.69,1205.53L1776.95,1205.45L1776.86,1205.46ZM1778.47,1205.36L1778.03,1205.38L1778.93,1205.33L1778.47,1205.36ZM1780.07,1205.25L1780.02,1205.25L1781.35,1205.16L1780.07,1205.25ZM1783.29,1205.03L1782.77,1205.06L1783.64,1205L1783.29,1205.03ZM1784.9,1204.91L1784.76,1204.92L1785.66,1204.86L1784.9,1204.91ZM1788.13,1204.67L1787.53,1204.72L1788.37,1204.65L1788.13,1204.67ZM1789.74,1204.55L1789.52,1204.57L1790.35,1204.5L1789.74,1204.55ZM1792.98,1204.29L1792.32,1204.35L1793.12,1204.28L1792.98,1204.29ZM345.643,1203.41L345.342,1203.41L345.789,1203.41L345.643,1203.41ZM344.253,1203.41L344.714,1203.41L344.521,1203.41L344.253,1203.41ZM346.755,1203.41L346.435,1203.41L346.852,1203.41L346.755,1203.41ZM343.16,1203.41L343.627,1203.41L343.387,1203.41L343.16,1203.41ZM347.856,1203.4L347.558,1203.4L347.905,1203.4L347.856,1203.4ZM342.061,1203.4L342.527,1203.4L342.244,1203.4L342.061,1203.4ZM340.955,1203.38L341.409,1203.39L341.09,1203.39L340.955,1203.38ZM339.841,1203.37L340.262,1203.37L339.927,1203.37L339.841,1203.37ZM338.719,1203.35L339.034,1203.35L338.753,1203.35L338.719,1203.35ZM337.354,1203.32L337.588,1203.32L337.57,1203.32L337.354,1203.32ZM336.033,1203.28L336.448,1203.29L336.376,1203.29L336.033,1203.28ZM334.83,1203.25L335.298,1203.26L335.173,1203.26L334.83,1203.25ZM333.646,1203.21L334.138,1203.23L333.961,1203.22L333.646,1203.21ZM332.464,1203.17L332.968,1203.19L332.739,1203.18L332.464,1203.17ZM331.279,1203.12L331.786,1203.14L331.508,1203.13L331.279,1203.12ZM330.088,1203.08L330.59,1203.1L330.268,1203.09L330.088,1203.08ZM328.891,1203.03L329.374,1203.05L329.019,1203.03L328.891,1203.03ZM327.688,1202.97L328.12,1202.99L327.761,1202.97L327.688,1202.97ZM326.477,1202.91L326.71,1202.92L326.494,1202.91L326.477,1202.91ZM324.898,1202.83L325.26,1202.85L325.219,1202.85L324.898,1202.83ZM323.558,1202.76L324.033,1202.78L323.935,1202.78L323.558,1202.76ZM322.282,1202.68L322.797,1202.71L322.643,1202.7L322.282,1202.68ZM321.018,1202.61L321.553,1202.64L321.342,1202.63L321.018,1202.61ZM319.755,1202.53L320.298,1202.56L320.034,1202.55L319.755,1202.53ZM318.489,1202.44L319.033,1202.48L318.717,1202.46L318.489,1202.44ZM317.219,1202.36L317.754,1202.39L317.393,1202.37L317.219,1202.36ZM315.943,1202.27L316.451,1202.31L316.06,1202.28L315.943,1202.27ZM314.661,1202.18L315.094,1202.21L314.72,1202.18L314.661,1202.18ZM313.27,1202.07L313.378,1202.08L313.27,1202.07ZM311.627,1201.94L312.084,1201.98L312.018,1201.98L311.627,1201.94ZM310.251,1201.83L310.783,1201.88L310.656,1201.87L310.251,1201.83ZM308.91,1201.72L309.474,1201.77L309.287,1201.76L308.91,1201.72ZM307.578,1201.61L308.157,1201.66L307.91,1201.64L307.578,1201.61ZM306.246,1201.49L306.831,1201.55L306.527,1201.52L306.246,1201.49ZM304.912,1201.38L305.495,1201.43L305.137,1201.4L304.912,1201.38ZM303.574,1201.25L304.144,1201.31L303.74,1201.27L303.574,1201.25ZM302.231,1201.13L302.767,1201.18L302.337,1201.14L302.231,1201.13ZM300.883,1201L301.308,1201.04L300.927,1201L300.883,1201ZM299.161,1200.83L299.543,1200.87L299.511,1200.86L299.161,1200.83ZM297.643,1200.67L298.186,1200.73L298.089,1200.72L297.643,1200.67ZM296.23,1200.53L296.822,1200.59L296.661,1200.58L296.23,1200.53ZM294.837,1200.38L295.451,1200.45L295.227,1200.42L294.837,1200.38ZM293.448,1200.23L294.074,1200.3L293.787,1200.27L293.448,1200.23ZM292.06,1200.08L292.69,1200.15L292.341,1200.11L292.06,1200.08ZM290.669,1199.93L291.296,1200L290.89,1199.95L290.669,1199.93ZM289.275,1199.77L289.888,1199.84L289.434,1199.79L289.275,1199.77ZM287.877,1199.61L288.452,1199.67L287.972,1199.62L287.877,1199.61ZM286.475,1199.44L286.891,1199.49L286.505,1199.45L286.475,1199.44ZM284.548,1199.21L285.096,1199.28L285.032,1199.27L284.548,1199.21ZM283.06,1199.03L283.687,1199.11L283.555,1199.09L283.06,1199.03ZM281.616,1198.85L282.273,1198.93L282.073,1198.91L281.616,1198.85ZM280.182,1198.67L280.854,1198.76L280.587,1198.72L280.182,1198.67ZM278.75,1198.49L279.43,1198.58L279.096,1198.53L278.75,1198.49ZM277.317,1198.3L278.001,1198.39L277.6,1198.34L277.317,1198.3ZM275.881,1198.11L276.564,1198.2L276.1,1198.14L275.881,1198.11ZM274.443,1197.92L275.116,1198.01L274.596,1197.94L274.443,1197.92ZM273.003,1197.72L273.644,1197.81L273.087,1197.74L273.003,1197.72ZM271.59,1197.53L271.987,1197.58L271.575,1197.53L271.057,1197.45L271.59,1197.53ZM269.48,1197.23L270.161,1197.33L270.059,1197.32L269.48,1197.23ZM268,1197.02L268.713,1197.12L268.539,1197.1L268,1197.02ZM266.533,1196.81L267.261,1196.92L267.016,1196.88L266.533,1196.81ZM265.069,1196.6L265.807,1196.71L265.489,1196.66L265.069,1196.6ZM263.605,1196.38L264.349,1196.49L263.959,1196.43L263.605,1196.38ZM262.139,1196.16L262.889,1196.27L262.425,1196.2L262.139,1196.16ZM260.672,1195.94L261.426,1196.05L260.888,1195.97L260.672,1195.94ZM259.202,1195.71L259.962,1195.83L259.349,1195.74L259.202,1195.71ZM257.73,1195.48L258.498,1195.6L257.806,1195.5L257.73,1195.48ZM256.327,1195.26L257.215,1195.4L256.261,1195.25L255.529,1195.14L256.327,1195.26ZM254.059,1194.9L254.859,1195.03L254.714,1195.01L254.059,1194.9ZM252.583,1194.66L253.385,1194.79L253.163,1194.76L252.583,1194.66ZM251.103,1194.42L251.909,1194.55L251.611,1194.5L251.103,1194.42ZM249.621,1194.17L250.432,1194.31L250.056,1194.25L249.621,1194.17ZM248.137,1193.92L248.956,1194.06L248.499,1193.99L248.137,1193.92ZM246.651,1193.67L247.481,1193.81L246.94,1193.72L246.651,1193.67ZM245.163,1193.42L246.012,1193.56L245.379,1193.46L245.163,1193.42ZM243.673,1193.16L244.564,1193.32L243.816,1193.18L243.673,1193.16ZM242.223,1192.91L243.227,1193.08L242.252,1192.91L240.828,1192.66L242.223,1192.91ZM239.835,1192.48L240.804,1192.66L240.686,1192.63L239.835,1192.48ZM238.404,1192.23L239.315,1192.39L239.119,1192.36L238.404,1192.23ZM236.933,1191.96L237.827,1192.12L237.551,1192.07L236.933,1191.96ZM235.45,1191.69L236.339,1191.85L235.981,1191.78L235.45,1191.69ZM233.961,1191.41L234.854,1191.58L234.41,1191.49L233.961,1191.41ZM232.469,1191.13L233.373,1191.3L232.839,1191.2L232.469,1191.13ZM230.974,1190.85L231.902,1191.02L231.267,1190.9L230.974,1190.85ZM229.478,1190.56L230.453,1190.75L229.694,1190.6L229.478,1190.56ZM226.569,1190C227.044,1190.09 227.52,1190.18 227.995,1190.28L228.12,1190.3C227.596,1190.2 227.071,1190.1 226.546,1189.99L226.569,1190ZM224.045,1189.5L225.141,1189.72L224.972,1189.68L224.045,1189.5ZM222.636,1189.22L223.649,1189.42L223.398,1189.37L222.636,1189.22ZM221.176,1188.92L222.16,1189.12L221.824,1189.05L221.176,1188.92ZM219.699,1188.62L220.675,1188.82L220.25,1188.74L219.699,1188.62ZM218.214,1188.32L219.195,1188.52L218.676,1188.41L218.214,1188.32ZM216.725,1188.01L217.726,1188.22L217.102,1188.09L216.725,1188.01ZM215.233,1187.69L216.278,1187.91L215.529,1187.76L215.233,1187.69ZM213.74,1187.38L214.882,1187.62L213.956,1187.42L213.74,1187.38ZM208.268,1186.2C210.065,1186.59 211.876,1186.98 213.689,1187.37C211.88,1186.98 210.073,1186.59 208.268,1186.2ZM206.878,1185.89L207.984,1186.13L207.674,1186.07L206.878,1185.89ZM205.437,1185.57L206.506,1185.81L206.106,1185.72L205.437,1185.57ZM203.976,1185.24L205.036,1185.48L204.539,1185.37L203.976,1185.24ZM202.505,1184.91L203.577,1185.15L202.974,1185.01L202.505,1184.91ZM1903.97,1184.99L1903.94,1184.99L1903.97,1184.99ZM201.03,1184.57L202.136,1184.82L201.41,1184.65L201.03,1184.57ZM199.553,1184.23L200.735,1184.5L199.848,1184.3L199.553,1184.23ZM1905.89,1184.35L1905.84,1184.37L1905.91,1184.34L1905.89,1184.35ZM192.623,1182.58C194.885,1183.13 197.16,1183.67 199.442,1184.2C197.158,1183.67 194.887,1183.13 192.623,1182.58ZM1906.53,1184.13L1906.5,1184.14L1906.62,1184.1L1906.53,1184.13ZM1907.8,1183.69L1907.7,1183.73L1907.83,1183.68L1907.8,1183.69ZM1908.44,1183.47L1908.35,1183.5L1908.59,1183.42L1908.44,1183.47ZM1909.69,1183.03L1909.5,1183.1L1909.71,1183.02L1909.69,1183.03ZM1910.32,1182.8L1910.16,1182.86L1910.49,1182.74L1910.32,1182.8ZM1911.56,1182.35L1910.91,1182.59C1911.12,1182.51 1911.34,1182.43 1911.56,1182.35ZM191.256,1182.25L192.439,1182.54L192.068,1182.45L191.256,1182.25ZM1912.17,1182.12L1911.92,1182.21L1912.34,1182.06L1912.17,1182.12ZM189.84,1181.9L190.986,1182.18L190.519,1182.07L189.84,1181.9ZM1912.79,1181.89L1912.69,1181.93L1913.3,1181.7L1912.79,1181.89ZM188.404,1181.55L189.544,1181.83L188.972,1181.69L188.404,1181.55ZM1914.01,1181.43L1913.62,1181.58L1914.17,1181.37L1914.01,1181.43ZM186.958,1181.19L188.119,1181.48L187.428,1181.31L186.958,1181.19ZM1914.61,1181.19L1914.45,1181.26L1915.07,1181.02L1914.61,1181.19ZM185.508,1180.82L186.726,1181.13L185.887,1180.92L185.508,1180.82ZM1915.96,1180.66L1915.21,1180.96C1915.46,1180.86 1915.71,1180.77 1915.96,1180.66ZM177.231,1178.67C179.94,1179.39 182.663,1180.1 185.401,1180.8C182.664,1180.1 179.939,1179.39 177.231,1178.67ZM1916.42,1180.48L1916.16,1180.58L1916.83,1180.32L1916.42,1180.48ZM1917.73,1179.95L1916.94,1180.27C1917.2,1180.17 1917.46,1180.06 1917.73,1179.95ZM1918.19,1179.76L1917.83,1179.91L1918.56,1179.61L1918.19,1179.76ZM1920.28,1178.88L1919.46,1179.24L1918.64,1179.58C1919.19,1179.35 1919.74,1179.12 1920.28,1178.88ZM58.335,1117.94C55.266,1112.24 54.119,1106.35 55.248,1100.31C87.933,925.121 406.239,987.892 406.239,987.892C406.239,987.892 441.17,910.792 547.132,877.922C616.207,856.495 712.297,841.257 712.297,841.257C712.297,841.257 792.44,665.376 981.606,662.102C1217.03,658.028 1329.44,850.052 1329.44,850.052C1329.44,850.052 1397.77,826.818 1508.96,854.862C1581.72,873.213 1651.37,938.689 1651.37,938.689C1651.37,938.689 1942.19,990.524 1964.17,1121.49C1968.57,1147.7 1950.23,1166.06 1920.3,1178.87C1922.8,1177.8 1925.22,1176.69 1927.55,1175.55C1942.74,1166.53 1950.69,1156.57 1947.52,1145.86C1925.53,1071.57 1727.9,1140.94 1727.9,1140.94C1727.9,1140.94 1648,1095.94 1575.24,1085.53C1464.05,1069.62 1420.89,1089.99 1420.89,1089.99C1420.89,1089.99 1291.27,936.31 1055.84,938.621C866.678,940.477 815.181,1047.9 815.181,1047.9C815.181,1047.9 676.946,1031.8 607.871,1043.95C501.908,1062.6 445.239,1093.95 445.239,1093.95C445.239,1093.95 79.277,1074.33 58.427,1114.8C58.103,1115.43 57.87,1116.08 57.724,1116.75C57.918,1117.14 58.121,1117.54 58.335,1117.94ZM175.892,1178.32L177.135,1178.65L176.704,1178.53L175.892,1178.32ZM174.51,1177.94L175.719,1178.27L175.186,1178.13L174.51,1177.94ZM173.108,1177.56L174.318,1177.89L173.671,1177.71L173.108,1177.56ZM171.698,1177.17L172.943,1177.52L172.161,1177.3L171.698,1177.17ZM162.214,1174.48C165.317,1175.39 168.453,1176.28 171.616,1177.15C168.451,1176.28 165.317,1175.39 162.214,1174.48ZM160.911,1174.09L162.191,1174.47L161.705,1174.33L160.911,1174.09ZM159.57,1173.69L160.824,1174.07L160.23,1173.89L159.57,1173.69ZM158.213,1173.29L159.478,1173.67L158.76,1173.45L158.213,1173.29ZM146.434,1169.6C150.287,1170.85 154.199,1172.08 158.167,1173.27C154.202,1172.08 150.284,1170.85 146.434,1169.6ZM145.145,1169.17L146.42,1169.59L145.774,1169.38L145.145,1169.17ZM58.844,1118.85C70.045,1138.28 103.513,1155.46 145.141,1169.17C103.508,1155.45 70.044,1138.27 58.844,1118.85ZM58.678,1118.56L58.842,1118.85L58.765,1118.71L58.678,1118.56ZM58.511,1118.26L58.667,1118.54L58.579,1118.38L58.511,1118.26ZM58.345,1117.96L58.497,1118.24L58.397,1118.05L58.345,1117.96Z" style="fill:white;"/>
        <path d="M57.724,1116.75C57.87,1116.08 58.103,1115.43 58.427,1114.8C79.277,1074.33 445.239,1093.95 445.239,1093.95C445.239,1093.95 501.908,1062.6 607.871,1043.95C676.946,1031.8 815.181,1047.9 815.181,1047.9C815.181,1047.9 866.678,940.477 1055.84,938.621C1291.27,936.31 1420.89,1089.99 1420.89,1089.99C1420.89,1089.99 1464.05,1069.62 1575.24,1085.53C1648,1095.94 1727.9,1140.94 1727.9,1140.94C1727.9,1140.94 1925.53,1071.57 1947.52,1145.86C1950.69,1156.57 1942.74,1166.53 1927.55,1175.55C1861.17,1208.28 1723.96,1208.6 1666.09,1207.74C1544.68,1205.91 1416.69,1182.98 1341.19,1181.01C1234.1,1178.23 1079.12,1215.08 990.341,1217.19C902.484,1219.29 742.289,1188.04 672.204,1191.04C573.708,1195.27 459.273,1202 348.947,1203.39C265.057,1204.45 82.88,1168.16 57.724,1116.75Z" style="fill:white;fill-opacity:0.59;"/>
    </g>
</svg>