<svg
        xmlns="http://www.w3.org/2000/svg"
        xmlSpace="preserve"
        fillRule="evenodd"
        strokeLinecap="round"
        strokeLinejoin="round"
        strokeMiterlimit="1.5"
        clipRule="evenodd"
        viewBox="0 0 1280 720">
        

<g id="piece-dojo-wall"><path d="M-40.338,295.955L-7.073,295.955C-6.775,295.955 -6.534,296.197 -6.534,296.494L-6.534,338.15C-6.534,338.448 -6.775,338.689 -7.073,338.689L-40.338,338.689L-40.338,343.649L-7.073,343.649C-6.775,343.649 -6.534,343.891 -6.534,344.188L-6.534,385.844C-6.534,386.142 -6.775,386.383 -7.073,386.383L-40.338,386.383L-40.338,390.944L-7.073,390.944C-6.775,390.944 -6.534,391.185 -6.534,391.483L-6.534,433.139C-6.534,433.436 -6.775,433.678 -7.073,433.678L-40.338,433.678L-40.338,598.616C-40.338,602.378 -37.283,605.433 -33.521,605.433L1309.13,605.433C1312.89,605.433 1315.95,602.378 1315.95,598.616L1315.95,433.678L1293.74,433.678C1293.44,433.678 1293.2,433.436 1293.2,433.139L1293.2,391.483C1293.2,391.185 1293.44,390.944 1293.74,390.944L1315.95,390.944L1315.95,386.383L1293.74,386.383C1293.44,386.383 1293.2,386.142 1293.2,385.844L1293.2,344.188C1293.2,343.891 1293.44,343.649 1293.74,343.649L1315.95,343.649L1315.95,338.689L1293.74,338.689C1293.44,338.689 1293.2,338.448 1293.2,338.15L1293.2,296.494C1293.2,296.197 1293.44,295.955 1293.74,295.955L1315.95,295.955L1315.95,71.745C1315.95,67.983 1312.89,64.929 1309.13,64.929L-33.521,64.929C-37.283,64.929 -40.338,67.983 -40.338,71.745L-40.338,295.955ZM219.483,433.678C219.78,433.678 220.021,433.436 220.021,433.139L220.021,391.483C220.021,391.185 219.78,390.944 219.483,390.944L155.884,390.944C155.586,390.944 155.345,391.185 155.345,391.483L155.345,433.139C155.345,433.436 155.586,433.678 155.884,433.678L219.483,433.678ZM150.558,433.678C150.855,433.678 151.097,433.436 151.097,433.139L151.097,391.483C151.097,391.185 150.855,390.944 150.558,390.944L86.959,390.944C86.662,390.944 86.42,391.185 86.42,391.483L86.42,433.139C86.42,433.436 86.662,433.678 86.959,433.678L150.558,433.678ZM288.407,433.678C288.704,433.678 288.946,433.436 288.946,433.139L288.946,391.483C288.946,391.185 288.704,390.944 288.407,390.944L224.808,390.944C224.511,390.944 224.269,391.185 224.269,391.483L224.269,433.139C224.269,433.436 224.511,433.678 224.808,433.678L288.407,433.678ZM1200.68,433.678C1200.98,433.678 1201.22,433.436 1201.22,433.139L1201.22,391.483C1201.22,391.185 1200.98,390.944 1200.68,390.944L1137.09,390.944C1136.79,390.944 1136.55,391.185 1136.55,391.483L1136.55,433.139C1136.55,433.436 1136.79,433.678 1137.09,433.678L1200.68,433.678ZM1131.76,433.678C1132.06,433.678 1132.3,433.436 1132.3,433.139L1132.3,391.483C1132.3,391.185 1132.06,390.944 1131.76,390.944L1068.16,390.944C1067.86,390.944 1067.62,391.185 1067.62,391.483L1067.62,433.139C1067.62,433.436 1067.86,433.678 1068.16,433.678L1131.76,433.678ZM1062.84,433.678C1063.13,433.678 1063.37,433.436 1063.37,433.139L1063.37,391.483C1063.37,391.185 1063.13,390.944 1062.84,390.944L999.237,390.944C998.939,390.944 998.698,391.185 998.698,391.483L998.698,433.139C998.698,433.436 998.939,433.678 999.237,433.678L1062.84,433.678ZM972.868,433.678C973.166,433.678 973.407,433.436 973.407,433.139L973.407,391.483C973.407,391.185 973.166,390.944 972.868,390.944L909.27,390.944C908.972,390.944 908.731,391.185 908.731,391.483L908.731,433.139C908.731,433.436 908.972,433.678 909.27,433.678L972.868,433.678ZM835.019,433.678C835.317,433.678 835.558,433.436 835.558,433.139L835.558,391.483C835.558,391.185 835.317,390.944 835.019,390.944L771.421,390.944C771.123,390.944 770.882,391.185 770.882,391.483L770.882,433.139C770.882,433.436 771.123,433.678 771.421,433.678L835.019,433.678ZM903.944,433.678C904.241,433.678 904.483,433.436 904.483,433.139L904.483,391.483C904.483,391.185 904.241,390.944 903.944,390.944L840.345,390.944C840.048,390.944 839.806,391.185 839.806,391.483L839.806,433.139C839.806,433.436 840.048,433.678 840.345,433.678L903.944,433.678ZM1288.41,433.678C1288.71,433.678 1288.95,433.436 1288.95,433.139L1288.95,391.483C1288.95,391.185 1288.71,390.944 1288.41,390.944L1224.81,390.944C1224.52,390.944 1224.27,391.185 1224.27,391.483L1224.27,433.139C1224.27,433.436 1224.52,433.678 1224.81,433.678L1288.41,433.678ZM745.069,433.678C745.367,433.678 745.608,433.436 745.608,433.139L745.608,391.483C745.608,391.185 745.367,390.944 745.069,390.944L681.471,390.944C681.173,390.944 680.932,391.185 680.932,391.483L680.932,433.139C680.932,433.436 681.173,433.678 681.471,433.678L745.069,433.678ZM607.22,433.678C607.518,433.678 607.759,433.436 607.759,433.139L607.759,391.483C607.759,391.185 607.518,390.944 607.22,390.944L543.622,390.944C543.324,390.944 543.083,391.185 543.083,391.483L543.083,433.139C543.083,433.436 543.324,433.678 543.622,433.678L607.22,433.678ZM676.145,433.678C676.442,433.678 676.684,433.436 676.684,433.139L676.684,391.483C676.684,391.185 676.442,390.944 676.145,390.944L612.546,390.944C612.249,390.944 612.007,391.185 612.007,391.483L612.007,433.139C612.007,433.436 612.249,433.678 612.546,433.678L676.145,433.678ZM516.206,433.678C516.503,433.678 516.745,433.436 516.745,433.139L516.745,391.483C516.745,391.185 516.503,390.944 516.206,390.944L452.607,390.944C452.31,390.944 452.068,391.185 452.068,391.483L452.068,433.139C452.068,433.436 452.31,433.678 452.607,433.678L516.206,433.678ZM378.357,433.678C378.655,433.678 378.896,433.436 378.896,433.139L378.896,391.483C378.896,391.185 378.655,390.944 378.357,390.944L314.758,390.944C314.461,390.944 314.219,391.185 314.219,391.483L314.219,433.139C314.219,433.436 314.461,433.678 314.758,433.678L378.357,433.678ZM447.282,433.678C447.579,433.678 447.821,433.436 447.821,433.139L447.821,391.483C447.821,391.185 447.579,390.944 447.282,390.944L383.683,390.944C383.385,390.944 383.144,391.185 383.144,391.483L383.144,433.139C383.144,433.436 383.385,433.678 383.683,433.678L447.282,433.678ZM61.852,433.678C62.149,433.678 62.391,433.436 62.391,433.139L62.391,391.483C62.391,391.185 62.149,390.944 61.852,390.944L-1.747,390.944C-2.044,390.944 -2.286,391.185 -2.286,391.483L-2.286,433.139C-2.286,433.436 -2.044,433.678 -1.747,433.678L61.852,433.678ZM61.852,386.383C62.149,386.383 62.391,386.142 62.391,385.844L62.391,344.188C62.391,343.891 62.149,343.649 61.852,343.649L-1.747,343.649C-2.044,343.649 -2.286,343.891 -2.286,344.188L-2.286,385.844C-2.286,386.142 -2.044,386.383 -1.747,386.383L61.852,386.383ZM1200.68,386.383C1200.98,386.383 1201.22,386.142 1201.22,385.844L1201.22,344.188C1201.22,343.891 1200.98,343.649 1200.68,343.649L1137.09,343.649C1136.79,343.649 1136.55,343.891 1136.55,344.188L1136.55,385.844C1136.55,386.142 1136.79,386.383 1137.09,386.383L1200.68,386.383ZM1131.76,386.383C1132.06,386.383 1132.3,386.142 1132.3,385.844L1132.3,344.188C1132.3,343.891 1132.06,343.649 1131.76,343.649L1068.16,343.649C1067.86,343.649 1067.62,343.891 1067.62,344.188L1067.62,385.844C1067.62,386.142 1067.86,386.383 1068.16,386.383L1131.76,386.383ZM1062.84,386.383C1063.13,386.383 1063.37,386.142 1063.37,385.844L1063.37,344.188C1063.37,343.891 1063.13,343.649 1062.84,343.649L999.237,343.649C998.939,343.649 998.698,343.891 998.698,344.188L998.698,385.844C998.698,386.142 998.939,386.383 999.237,386.383L1062.84,386.383ZM219.483,386.383C219.78,386.383 220.021,386.142 220.021,385.844L220.021,344.188C220.021,343.891 219.78,343.649 219.483,343.649L155.884,343.649C155.586,343.649 155.345,343.891 155.345,344.188L155.345,385.844C155.345,386.142 155.586,386.383 155.884,386.383L219.483,386.383ZM150.558,386.383C150.855,386.383 151.097,386.142 151.097,385.844L151.097,344.188C151.097,343.891 150.855,343.649 150.558,343.649L86.959,343.649C86.662,343.649 86.42,343.891 86.42,344.188L86.42,385.844C86.42,386.142 86.662,386.383 86.959,386.383L150.558,386.383ZM288.407,386.383C288.704,386.383 288.946,386.142 288.946,385.844L288.946,344.188C288.946,343.891 288.704,343.649 288.407,343.649L224.808,343.649C224.511,343.649 224.269,343.891 224.269,344.188L224.269,385.844C224.269,386.142 224.511,386.383 224.808,386.383L288.407,386.383ZM447.282,386.383C447.579,386.383 447.821,386.142 447.821,385.844L447.821,344.188C447.821,343.891 447.579,343.649 447.282,343.649L383.683,343.649C383.385,343.649 383.144,343.891 383.144,344.188L383.144,385.844C383.144,386.142 383.385,386.383 383.683,386.383L447.282,386.383ZM378.357,386.383C378.655,386.383 378.896,386.142 378.896,385.844L378.896,344.188C378.896,343.891 378.655,343.649 378.357,343.649L314.758,343.649C314.461,343.649 314.219,343.891 314.219,344.188L314.219,385.844C314.219,386.142 314.461,386.383 314.758,386.383L378.357,386.383ZM516.206,386.383C516.503,386.383 516.745,386.142 516.745,385.844L516.745,344.188C516.745,343.891 516.503,343.649 516.206,343.649L452.607,343.649C452.31,343.649 452.068,343.891 452.068,344.188L452.068,385.844C452.068,386.142 452.31,386.383 452.607,386.383L516.206,386.383ZM972.868,386.383C973.166,386.383 973.407,386.142 973.407,385.844L973.407,344.188C973.407,343.891 973.166,343.649 972.868,343.649L909.27,343.649C908.972,343.649 908.731,343.891 908.731,344.188L908.731,385.844C908.731,386.142 908.972,386.383 909.27,386.383L972.868,386.383ZM835.019,386.383C835.317,386.383 835.558,386.142 835.558,385.844L835.558,344.188C835.558,343.891 835.317,343.649 835.019,343.649L771.421,343.649C771.123,343.649 770.882,343.891 770.882,344.188L770.882,385.844C770.882,386.142 771.123,386.383 771.421,386.383L835.019,386.383ZM903.944,386.383C904.241,386.383 904.483,386.142 904.483,385.844L904.483,344.188C904.483,343.891 904.241,343.649 903.944,343.649L840.345,343.649C840.048,343.649 839.806,343.891 839.806,344.188L839.806,385.844C839.806,386.142 840.048,386.383 840.345,386.383L903.944,386.383ZM1288.41,386.383C1288.71,386.383 1288.95,386.142 1288.95,385.844L1288.95,344.188C1288.95,343.891 1288.71,343.649 1288.41,343.649L1224.81,343.649C1224.52,343.649 1224.27,343.891 1224.27,344.188L1224.27,385.844C1224.27,386.142 1224.52,386.383 1224.81,386.383L1288.41,386.383ZM676.145,386.383C676.442,386.383 676.684,386.142 676.684,385.844L676.684,344.188C676.684,343.891 676.442,343.649 676.145,343.649L612.546,343.649C612.249,343.649 612.007,343.891 612.007,344.188L612.007,385.844C612.007,386.142 612.249,386.383 612.546,386.383L676.145,386.383ZM607.22,386.383C607.518,386.383 607.759,386.142 607.759,385.844L607.759,344.188C607.759,343.891 607.518,343.649 607.22,343.649L543.622,343.649C543.324,343.649 543.083,343.891 543.083,344.188L543.083,385.844C543.083,386.142 543.324,386.383 543.622,386.383L607.22,386.383ZM745.069,386.383C745.367,386.383 745.608,386.142 745.608,385.844L745.608,344.188C745.608,343.891 745.367,343.649 745.069,343.649L681.471,343.649C681.173,343.649 680.932,343.891 680.932,344.188L680.932,385.844C680.932,386.142 681.173,386.383 681.471,386.383L745.069,386.383ZM676.145,338.689C676.442,338.689 676.684,338.448 676.684,338.15L676.684,296.494C676.684,296.197 676.442,295.955 676.145,295.955L612.546,295.955C612.249,295.955 612.007,296.197 612.007,296.494L612.007,338.15C612.007,338.448 612.249,338.689 612.546,338.689L676.145,338.689ZM607.22,338.689C607.518,338.689 607.759,338.448 607.759,338.15L607.759,296.494C607.759,296.197 607.518,295.955 607.22,295.955L543.622,295.955C543.324,295.955 543.083,296.197 543.083,296.494L543.083,338.15C543.083,338.448 543.324,338.689 543.622,338.689L607.22,338.689ZM745.069,338.689C745.367,338.689 745.608,338.448 745.608,338.15L745.608,296.494C745.608,296.197 745.367,295.955 745.069,295.955L681.471,295.955C681.173,295.955 680.932,296.197 680.932,296.494L680.932,338.15C680.932,338.448 681.173,338.689 681.471,338.689L745.069,338.689ZM288.407,338.689C288.704,338.689 288.946,338.448 288.946,338.15L288.946,296.494C288.946,296.197 288.704,295.955 288.407,295.955L224.808,295.955C224.511,295.955 224.269,296.197 224.269,296.494L224.269,338.15C224.269,338.448 224.511,338.689 224.808,338.689L288.407,338.689ZM150.558,338.689C150.855,338.689 151.097,338.448 151.097,338.15L151.097,296.494C151.097,296.197 150.855,295.955 150.558,295.955L86.959,295.955C86.662,295.955 86.42,296.197 86.42,296.494L86.42,338.15C86.42,338.448 86.662,338.689 86.959,338.689L150.558,338.689ZM219.483,338.689C219.78,338.689 220.021,338.448 220.021,338.15L220.021,296.494C220.021,296.197 219.78,295.955 219.483,295.955L155.884,295.955C155.586,295.955 155.345,296.197 155.345,296.494L155.345,338.15C155.345,338.448 155.586,338.689 155.884,338.689L219.483,338.689ZM516.206,338.689C516.503,338.689 516.745,338.448 516.745,338.15L516.745,296.494C516.745,296.197 516.503,295.955 516.206,295.955L452.607,295.955C452.31,295.955 452.068,296.197 452.068,296.494L452.068,338.15C452.068,338.448 452.31,338.689 452.607,338.689L516.206,338.689ZM378.357,338.689C378.655,338.689 378.896,338.448 378.896,338.15L378.896,296.494C378.896,296.197 378.655,295.955 378.357,295.955L314.758,295.955C314.461,295.955 314.219,296.197 314.219,296.494L314.219,338.15C314.219,338.448 314.461,338.689 314.758,338.689L378.357,338.689ZM447.282,338.689C447.579,338.689 447.821,338.448 447.821,338.15L447.821,296.494C447.821,296.197 447.579,295.955 447.282,295.955L383.683,295.955C383.385,295.955 383.144,296.197 383.144,296.494L383.144,338.15C383.144,338.448 383.385,338.689 383.683,338.689L447.282,338.689ZM903.944,338.689C904.241,338.689 904.483,338.448 904.483,338.15L904.483,296.494C904.483,296.197 904.241,295.955 903.944,295.955L840.345,295.955C840.048,295.955 839.806,296.197 839.806,296.494L839.806,338.15C839.806,338.448 840.048,338.689 840.345,338.689L903.944,338.689ZM835.019,338.689C835.317,338.689 835.558,338.448 835.558,338.15L835.558,296.494C835.558,296.197 835.317,295.955 835.019,295.955L771.421,295.955C771.123,295.955 770.882,296.197 770.882,296.494L770.882,338.15C770.882,338.448 771.123,338.689 771.421,338.689L835.019,338.689ZM972.868,338.689C973.166,338.689 973.407,338.448 973.407,338.15L973.407,296.494C973.407,296.197 973.166,295.955 972.868,295.955L909.27,295.955C908.972,295.955 908.731,296.197 908.731,296.494L908.731,338.15C908.731,338.448 908.972,338.689 909.27,338.689L972.868,338.689ZM1288.41,338.689C1288.71,338.689 1288.95,338.448 1288.95,338.15L1288.95,296.494C1288.95,296.197 1288.71,295.955 1288.41,295.955L1224.81,295.955C1224.52,295.955 1224.27,296.197 1224.27,296.494L1224.27,338.15C1224.27,338.448 1224.52,338.689 1224.81,338.689L1288.41,338.689ZM61.852,338.689C62.149,338.689 62.391,338.448 62.391,338.15L62.391,296.494C62.391,296.197 62.149,295.955 61.852,295.955L-1.747,295.955C-2.044,295.955 -2.286,296.197 -2.286,296.494L-2.286,338.15C-2.286,338.448 -2.044,338.689 -1.747,338.689L61.852,338.689ZM1131.76,338.689C1132.06,338.689 1132.3,338.448 1132.3,338.15L1132.3,296.494C1132.3,296.197 1132.06,295.955 1131.76,295.955L1068.16,295.955C1067.86,295.955 1067.62,296.197 1067.62,296.494L1067.62,338.15C1067.62,338.448 1067.86,338.689 1068.16,338.689L1131.76,338.689ZM1062.84,338.689C1063.13,338.689 1063.37,338.448 1063.37,338.15L1063.37,296.494C1063.37,296.197 1063.13,295.955 1062.84,295.955L999.237,295.955C998.939,295.955 998.698,296.197 998.698,296.494L998.698,338.15C998.698,338.448 998.939,338.689 999.237,338.689L1062.84,338.689ZM1200.68,338.689C1200.98,338.689 1201.22,338.448 1201.22,338.15L1201.22,296.494C1201.22,296.197 1200.98,295.955 1200.68,295.955L1137.09,295.955C1136.79,295.955 1136.55,296.197 1136.55,296.494L1136.55,338.15C1136.55,338.448 1136.79,338.689 1137.09,338.689L1200.68,338.689Z" style="fill:rgb(92,77,54);stroke:black;stroke-width:1.3px;"/>
<g xmlns="http://www.w3.org/2000/svg">
	<g>
		<path d="M288.827,584.665C288.897,584.665 288.953,584.608 288.953,584.539L288.953,449.448C288.953,449.379 288.897,449.323 288.827,449.323L86.546,449.323C86.477,449.323 86.42,449.379 86.42,449.448L86.42,584.539C86.42,584.608 86.477,584.665 86.546,584.665L288.827,584.665Z" style="fill:rgb(130,100,58);stroke:black;stroke-width:1.3px;"/>
		<path d="M137.437,450.663C137.161,465.799 135.927,491.848 137.115,505.421C138.303,518.994 137.664,531.39 137.78,544.305C137.896,557.22 138.72,572.517 138.674,583.366" style="fill:none;stroke:rgb(110,83,49);stroke-width:1.3px;"/>
		<path d="M110.955,450.781C110.679,465.916 109.672,490.275 110.86,503.848C112.048,517.421 111.377,532.421 111.493,545.336C111.609,558.25 111.418,572.548 111.372,583.398" style="fill:none;stroke:rgb(110,83,49);stroke-width:1.3px;"/>
		<path d="M165.21,450.648C164.934,465.783 164.857,500.049 166.045,513.622C167.234,527.195 166.113,533.999 166.229,546.913C166.345,559.828 166.804,572.587 166.758,583.437" style="fill:none;stroke:rgb(110,83,49);stroke-width:1.3px;"/>
		<path d="M268.406,451.031C268.13,466.167 264.907,493.502 266.095,507.075C267.283,520.648 268.886,527.811 269.001,540.725C269.117,553.64 268.252,572.546 268.206,583.396" style="fill:none;stroke:rgb(110,83,49);stroke-width:1.3px;"/>
		<path d="M193.039,450.847C192.762,465.982 193.073,491.379 194.261,504.952C195.449,518.525 191.728,528.022 191.844,540.937C191.96,553.852 193.968,571.764 193.922,582.614" style="fill:none;stroke:rgb(110,83,49);stroke-width:1.3px;"/>
		<path d="M219.953,451.239C219.677,466.374 216.927,489.07 218.115,502.643C219.303,516.216 218.083,528.74 218.199,541.654C218.315,554.569 220.429,570.631 220.383,581.481" style="fill:none;stroke:rgb(110,83,49);stroke-width:1.3px;"/>
		<path d="M244.477,450.269C244.201,465.404 240.123,494.186 241.311,507.759C242.499,521.332 244.101,528.495 244.217,541.41C244.333,554.324 245.925,571.581 245.879,582.431" style="fill:none;stroke:rgb(110,83,49);stroke-width:1.3px;"/>
	</g>
	<g>
		<path d="M288.117,221.778C288.187,221.778 288.243,221.721 288.243,221.652L288.243,86.562C288.243,86.492 288.187,86.436 288.117,86.436L85.836,86.436C85.767,86.436 85.71,86.492 85.71,86.562L85.71,221.652C85.71,221.721 85.767,221.778 85.836,221.778L288.117,221.778Z" style="fill:rgb(130,100,58);stroke:black;stroke-width:1.3px;"/>
		<path d="M136.727,87.776C136.451,102.912 135.217,128.961 136.405,142.534C137.593,156.107 136.954,168.504 137.07,181.418C137.186,194.333 138.01,209.63 137.964,220.479" style="fill:none;stroke:rgb(110,83,49);stroke-width:1.3px;"/>
		<path d="M110.245,87.894C109.968,103.029 108.962,127.388 110.15,140.961C111.338,154.534 110.667,169.534 110.783,182.449C110.899,195.363 110.708,209.661 110.662,220.511" style="fill:none;stroke:rgb(110,83,49);stroke-width:1.3px;"/>
		<path d="M164.5,87.761C164.224,102.896 164.147,137.162 165.335,150.735C166.523,164.308 165.403,171.112 165.519,184.026C165.635,196.941 166.094,209.7 166.048,220.55" style="fill:none;stroke:rgb(110,83,49);stroke-width:1.3px;"/>
		<path d="M267.696,88.144C267.419,103.28 264.197,130.615 265.385,144.188C266.573,157.761 268.175,164.924 268.291,177.838C268.407,190.753 267.542,209.659 267.496,220.509" style="fill:none;stroke:rgb(110,83,49);stroke-width:1.3px;"/>
		<path d="M192.329,87.96C192.052,103.095 192.363,128.492 193.551,142.065C194.739,155.638 191.018,165.135 191.134,178.05C191.25,190.965 193.258,208.878 193.212,219.727" style="fill:none;stroke:rgb(110,83,49);stroke-width:1.3px;"/>
		<path d="M219.243,88.352C218.967,103.487 216.217,126.183 217.405,139.756C218.593,153.329 217.373,165.853 217.489,178.768C217.605,191.682 219.719,207.744 219.673,218.594" style="fill:none;stroke:rgb(110,83,49);stroke-width:1.3px;"/>
		<path d="M243.767,87.382C243.491,102.517 239.413,131.299 240.601,144.872C241.789,158.445 243.391,165.608 243.507,178.523C243.623,191.438 245.215,208.694 245.169,219.544" style="fill:none;stroke:rgb(110,83,49);stroke-width:1.3px;"/>
	</g>
</g>
<g xmlns="http://www.w3.org/2000/svg">
	<g>
		<path d="M62.272,584.665C62.342,584.665 62.398,584.608 62.398,584.539L62.398,449.448C62.398,449.379 62.342,449.323 62.272,449.323L-140.009,449.323C-140.078,449.323 -140.135,449.379 -140.135,449.448L-140.135,584.539C-140.135,584.608 -140.078,584.665 -140.009,584.665L62.272,584.665Z" style="fill:rgb(130,100,58);stroke:black;stroke-width:1.3px;"/>
		<path d="M41.851,451.031C41.574,466.167 38.352,493.502 39.54,507.075C40.728,520.648 42.33,527.811 42.446,540.725C42.562,553.64 41.697,572.546 41.651,583.396" style="fill:none;stroke:rgb(110,83,49);stroke-width:1.3px;"/>
		<path d="M17.922,450.269C17.646,465.404 13.568,494.186 14.756,507.759C15.944,521.332 17.546,528.495 17.662,541.41C17.778,554.324 19.37,571.581 19.324,582.431" style="fill:none;stroke:rgb(110,83,49);stroke-width:1.3px;"/>
	</g>
	<g>
		<path d="M61.562,221.778C61.631,221.778 61.688,221.721 61.688,221.652L61.688,86.562C61.688,86.492 61.631,86.436 61.562,86.436L-140.719,86.436C-140.788,86.436 -140.845,86.492 -140.845,86.562L-140.845,221.652C-140.845,221.721 -140.788,221.778 -140.719,221.778L61.562,221.778Z" style="fill:rgb(130,100,58);stroke:black;stroke-width:1.3px;"/>
		<path d="M41.141,88.144C40.864,103.28 37.642,130.615 38.83,144.188C40.018,157.761 41.62,164.924 41.736,177.838C41.852,190.753 40.987,209.659 40.941,220.509" style="fill:none;stroke:rgb(110,83,49);stroke-width:1.3px;"/>
		<path d="M17.212,87.382C16.936,102.517 12.858,131.299 14.046,144.872C15.234,158.445 16.836,165.608 16.952,178.523C17.068,191.438 18.66,208.694 18.614,219.544" style="fill:none;stroke:rgb(110,83,49);stroke-width:1.3px;"/>
	</g>
</g>
<g xmlns="http://www.w3.org/2000/svg">
	<g>
		<path d="M516.626,584.665C516.696,584.665 516.752,584.608 516.752,584.539L516.752,449.448C516.752,449.379 516.696,449.323 516.626,449.323L314.345,449.323C314.276,449.323 314.219,449.379 314.219,449.448L314.219,584.539C314.219,584.608 314.276,584.665 314.345,584.665L516.626,584.665Z" style="fill:rgb(130,100,58);stroke:black;stroke-width:1.3px;"/>
		<path d="M365.236,450.663C364.96,465.799 363.726,491.848 364.914,505.421C366.102,518.994 365.463,531.39 365.579,544.305C365.695,557.22 366.519,572.517 366.473,583.366" style="fill:none;stroke:rgb(110,83,49);stroke-width:1.3px;"/>
		<path d="M338.754,450.781C338.478,465.916 337.471,490.275 338.659,503.848C339.847,517.421 339.176,532.421 339.292,545.336C339.408,558.25 339.217,572.548 339.171,583.398" style="fill:none;stroke:rgb(110,83,49);stroke-width:1.3px;"/>
		<path d="M393.009,450.648C392.733,465.783 392.656,500.049 393.845,513.622C395.033,527.195 393.912,533.999 394.028,546.913C394.144,559.828 394.603,572.587 394.557,583.437" style="fill:none;stroke:rgb(110,83,49);stroke-width:1.3px;"/>
		<path d="M496.205,451.031C495.929,466.167 492.706,493.502 493.894,507.075C495.082,520.648 496.685,527.811 496.801,540.725C496.916,553.64 496.051,572.546 496.005,583.396" style="fill:none;stroke:rgb(110,83,49);stroke-width:1.3px;"/>
		<path d="M420.838,450.847C420.561,465.982 420.872,491.379 422.06,504.952C423.248,518.525 419.527,528.022 419.643,540.937C419.759,553.852 421.767,571.764 421.721,582.614" style="fill:none;stroke:rgb(110,83,49);stroke-width:1.3px;"/>
		<path d="M447.752,451.239C447.476,466.374 444.726,489.07 445.914,502.643C447.102,516.216 445.882,528.74 445.998,541.654C446.114,554.569 448.228,570.631 448.182,581.481" style="fill:none;stroke:rgb(110,83,49);stroke-width:1.3px;"/>
		<path d="M472.276,450.269C472,465.404 467.922,494.186 469.11,507.759C470.298,521.332 471.9,528.495 472.016,541.41C472.132,554.324 473.724,571.581 473.678,582.431" style="fill:none;stroke:rgb(110,83,49);stroke-width:1.3px;"/>
	</g>
	<g>
		<path d="M515.916,221.778C515.986,221.778 516.042,221.721 516.042,221.652L516.042,86.562C516.042,86.492 515.986,86.436 515.916,86.436L313.635,86.436C313.566,86.436 313.509,86.492 313.509,86.562L313.509,221.652C313.509,221.721 313.566,221.778 313.635,221.778L515.916,221.778Z" style="fill:rgb(130,100,58);stroke:black;stroke-width:1.3px;"/>
		<path d="M364.526,87.776C364.25,102.912 363.016,128.961 364.204,142.534C365.392,156.107 364.753,168.504 364.869,181.418C364.985,194.333 365.809,209.63 365.763,220.479" style="fill:none;stroke:rgb(110,83,49);stroke-width:1.3px;"/>
		<path d="M338.044,87.894C337.767,103.029 336.761,127.388 337.949,140.961C339.137,154.534 338.466,169.534 338.582,182.449C338.698,195.363 338.507,209.661 338.461,220.511" style="fill:none;stroke:rgb(110,83,49);stroke-width:1.3px;"/>
		<path d="M392.299,87.761C392.023,102.896 391.946,137.162 393.134,150.735C394.322,164.308 393.202,171.112 393.318,184.026C393.434,196.941 393.893,209.7 393.847,220.55" style="fill:none;stroke:rgb(110,83,49);stroke-width:1.3px;"/>
		<path d="M495.495,88.144C495.219,103.28 491.996,130.615 493.184,144.188C494.372,157.761 495.975,164.924 496.09,177.838C496.206,190.753 495.341,209.659 495.295,220.509" style="fill:none;stroke:rgb(110,83,49);stroke-width:1.3px;"/>
		<path d="M420.128,87.96C419.851,103.095 420.162,128.492 421.35,142.065C422.538,155.638 418.817,165.135 418.933,178.05C419.049,190.965 421.057,208.878 421.011,219.727" style="fill:none;stroke:rgb(110,83,49);stroke-width:1.3px;"/>
		<path d="M447.042,88.352C446.766,103.487 444.016,126.183 445.204,139.756C446.392,153.329 445.172,165.853 445.288,178.768C445.404,191.682 447.518,207.744 447.472,218.594" style="fill:none;stroke:rgb(110,83,49);stroke-width:1.3px;"/>
		<path d="M471.566,87.382C471.29,102.517 467.212,131.299 468.4,144.872C469.588,158.445 471.19,165.608 471.306,178.523C471.422,191.438 473.014,208.694 472.968,219.544" style="fill:none;stroke:rgb(110,83,49);stroke-width:1.3px;"/>
	</g>
</g>
<g xmlns="http://www.w3.org/2000/svg">
	<g>
		<path d="M745.49,584.665C745.559,584.665 745.615,584.608 745.615,584.539L745.615,449.448C745.615,449.379 745.559,449.323 745.49,449.323L543.208,449.323C543.139,449.323 543.083,449.379 543.083,449.448L543.083,584.539C543.083,584.608 543.139,584.665 543.208,584.665L745.49,584.665Z" style="fill:rgb(130,100,58);stroke:black;stroke-width:1.3px;"/>
		<path d="M594.099,450.663C593.823,465.799 592.589,491.848 593.777,505.421C594.965,518.994 594.326,531.39 594.442,544.305C594.558,557.22 595.382,572.517 595.336,583.366" style="fill:none;stroke:rgb(110,83,49);stroke-width:1.3px;"/>
		<path d="M567.617,450.781C567.341,465.916 566.335,490.275 567.523,503.848C568.711,517.421 568.039,532.421 568.155,545.336C568.271,558.25 568.08,572.548 568.034,583.398" style="fill:none;stroke:rgb(110,83,49);stroke-width:1.3px;"/>
		<path d="M621.873,450.648C621.596,465.783 621.52,500.049 622.708,513.622C623.896,527.195 622.775,533.999 622.891,546.913C623.007,559.828 623.466,572.587 623.421,583.437" style="fill:none;stroke:rgb(110,83,49);stroke-width:1.3px;"/>
		<path d="M725.068,451.031C724.792,466.167 721.57,493.502 722.758,507.075C723.946,520.648 725.548,527.811 725.664,540.725C725.78,553.64 724.914,572.546 724.868,583.396" style="fill:none;stroke:rgb(110,83,49);stroke-width:1.3px;"/>
		<path d="M649.701,450.847C649.425,465.982 649.735,491.379 650.923,504.952C652.111,518.525 648.39,528.022 648.506,540.937C648.622,553.852 650.63,571.764 650.584,582.614" style="fill:none;stroke:rgb(110,83,49);stroke-width:1.3px;"/>
		<path d="M676.616,451.239C676.339,466.374 673.589,489.07 674.777,502.643C675.965,516.216 674.745,528.74 674.861,541.654C674.977,554.569 677.091,570.631 677.045,581.481" style="fill:none;stroke:rgb(110,83,49);stroke-width:1.3px;"/>
		<path d="M701.139,450.269C700.863,465.404 696.785,494.186 697.973,507.759C699.161,521.332 700.763,528.495 700.879,541.41C700.995,554.324 702.588,571.581 702.542,582.431" style="fill:none;stroke:rgb(110,83,49);stroke-width:1.3px;"/>
	</g>
	<g>
		<path d="M744.779,221.778C744.849,221.778 744.905,221.721 744.905,221.652L744.905,86.562C744.905,86.492 744.849,86.436 744.779,86.436L542.498,86.436C542.429,86.436 542.373,86.492 542.373,86.562L542.373,221.652C542.373,221.721 542.429,221.778 542.498,221.778L744.779,221.778Z" style="fill:rgb(130,100,58);stroke:black;stroke-width:1.3px;"/>
		<path d="M593.389,87.776C593.113,102.912 591.879,128.961 593.067,142.534C594.255,156.107 593.616,168.504 593.732,181.418C593.848,194.333 594.672,209.63 594.626,220.479" style="fill:none;stroke:rgb(110,83,49);stroke-width:1.3px;"/>
		<path d="M566.907,87.894C566.631,103.029 565.625,127.388 566.813,140.961C568.001,154.534 567.329,169.534 567.445,182.449C567.561,195.363 567.37,209.661 567.324,220.511" style="fill:none;stroke:rgb(110,83,49);stroke-width:1.3px;"/>
		<path d="M621.163,87.761C620.886,102.896 620.81,137.162 621.998,150.735C623.186,164.308 622.065,171.112 622.181,184.026C622.297,196.941 622.756,209.7 622.71,220.55" style="fill:none;stroke:rgb(110,83,49);stroke-width:1.3px;"/>
		<path d="M724.358,88.144C724.082,103.28 720.859,130.615 722.048,144.188C723.236,157.761 724.838,164.924 724.954,177.838C725.07,190.753 724.204,209.659 724.158,220.509" style="fill:none;stroke:rgb(110,83,49);stroke-width:1.3px;"/>
		<path d="M648.991,87.96C648.714,103.095 649.025,128.492 650.213,142.065C651.401,155.638 647.68,165.135 647.796,178.05C647.912,190.965 649.92,208.878 649.874,219.727" style="fill:none;stroke:rgb(110,83,49);stroke-width:1.3px;"/>
		<path d="M675.906,88.352C675.629,103.487 672.879,126.183 674.067,139.756C675.255,153.329 674.035,165.853 674.151,178.768C674.267,191.682 676.381,207.744 676.335,218.594" style="fill:none;stroke:rgb(110,83,49);stroke-width:1.3px;"/>
		<path d="M700.429,87.382C700.153,102.517 696.075,131.299 697.263,144.872C698.451,158.445 700.053,165.608 700.169,178.523C700.285,191.438 701.877,208.694 701.831,219.544" style="fill:none;stroke:rgb(110,83,49);stroke-width:1.3px;"/>
	</g>
</g>
<g xmlns="http://www.w3.org/2000/svg">
	<g>
		<path d="M1201.11,584.665C1201.17,584.665 1201.23,584.608 1201.23,584.539L1201.23,449.448C1201.23,449.379 1201.17,449.323 1201.11,449.323L998.824,449.323C998.754,449.323 998.698,449.379 998.698,449.448L998.698,584.539C998.698,584.608 998.754,584.665 998.824,584.665L1201.11,584.665Z" style="fill:rgb(130,100,58);stroke:black;stroke-width:1.3px;"/>
		<path d="M1049.71,450.663C1049.44,465.799 1048.2,491.848 1049.39,505.421C1050.58,518.994 1049.94,531.39 1050.06,544.305C1050.17,557.22 1051,572.517 1050.95,583.366" style="fill:none;stroke:rgb(110,83,49);stroke-width:1.3px;"/>
		<path d="M1023.23,450.781C1022.96,465.916 1021.95,490.275 1023.14,503.848C1024.33,517.421 1023.65,532.421 1023.77,545.336C1023.89,558.25 1023.7,572.548 1023.65,583.398" style="fill:none;stroke:rgb(110,83,49);stroke-width:1.3px;"/>
		<path d="M1077.49,450.648C1077.21,465.783 1077.13,500.049 1078.32,513.622C1079.51,527.195 1078.39,533.999 1078.51,546.913C1078.62,559.828 1079.08,572.587 1079.04,583.437" style="fill:none;stroke:rgb(110,83,49);stroke-width:1.3px;"/>
		<path d="M1180.68,451.031C1180.41,466.167 1177.18,493.502 1178.37,507.075C1179.56,520.648 1181.16,527.811 1181.28,540.725C1181.39,553.64 1180.53,572.546 1180.48,583.396" style="fill:none;stroke:rgb(110,83,49);stroke-width:1.3px;"/>
		<path d="M1105.32,450.847C1105.04,465.982 1105.35,491.379 1106.54,504.952C1107.73,518.525 1104.01,528.022 1104.12,540.937C1104.24,553.852 1106.25,571.764 1106.2,582.614" style="fill:none;stroke:rgb(110,83,49);stroke-width:1.3px;"/>
		<path d="M1132.23,451.239C1131.95,466.374 1129.2,489.07 1130.39,502.643C1131.58,516.216 1130.36,528.74 1130.48,541.654C1130.59,554.569 1132.71,570.631 1132.66,581.481" style="fill:none;stroke:rgb(110,83,49);stroke-width:1.3px;"/>
		<path d="M1156.76,450.269C1156.48,465.404 1152.4,494.186 1153.59,507.759C1154.78,521.332 1156.38,528.495 1156.5,541.41C1156.61,554.324 1158.2,571.581 1158.16,582.431" style="fill:none;stroke:rgb(110,83,49);stroke-width:1.3px;"/>
	</g>
	<g>
		<path d="M1200.39,221.778C1200.46,221.778 1200.52,221.721 1200.52,221.652L1200.52,86.562C1200.52,86.492 1200.46,86.436 1200.39,86.436L998.114,86.436C998.044,86.436 997.988,86.492 997.988,86.562L997.988,221.652C997.988,221.721 998.044,221.778 998.114,221.778L1200.39,221.778Z" style="fill:rgb(130,100,58);stroke:black;stroke-width:1.3px;"/>
		<path d="M1049,87.776C1048.73,102.912 1047.49,128.961 1048.68,142.534C1049.87,156.107 1049.23,168.504 1049.35,181.418C1049.46,194.333 1050.29,209.63 1050.24,220.479" style="fill:none;stroke:rgb(110,83,49);stroke-width:1.3px;"/>
		<path d="M1022.52,87.894C1022.25,103.029 1021.24,127.388 1022.43,140.961C1023.62,154.534 1022.95,169.534 1023.06,182.449C1023.18,195.363 1022.99,209.661 1022.94,220.511" style="fill:none;stroke:rgb(110,83,49);stroke-width:1.3px;"/>
		<path d="M1076.78,87.761C1076.5,102.896 1076.42,137.162 1077.61,150.735C1078.8,164.308 1077.68,171.112 1077.8,184.026C1077.91,196.941 1078.37,209.7 1078.33,220.55" style="fill:none;stroke:rgb(110,83,49);stroke-width:1.3px;"/>
		<path d="M1179.97,88.144C1179.7,103.28 1176.48,130.615 1177.66,144.188C1178.85,157.761 1180.45,164.924 1180.57,177.838C1180.68,190.753 1179.82,209.659 1179.77,220.509" style="fill:none;stroke:rgb(110,83,49);stroke-width:1.3px;"/>
		<path d="M1104.61,87.96C1104.33,103.095 1104.64,128.492 1105.83,142.065C1107.02,155.638 1103.3,165.135 1103.41,178.05C1103.53,190.965 1105.54,208.878 1105.49,219.727" style="fill:none;stroke:rgb(110,83,49);stroke-width:1.3px;"/>
		<path d="M1131.52,88.352C1131.24,103.487 1128.49,126.183 1129.68,139.756C1130.87,153.329 1129.65,165.853 1129.77,178.768C1129.88,191.682 1132,207.744 1131.95,218.594" style="fill:none;stroke:rgb(110,83,49);stroke-width:1.3px;"/>
		<path d="M1156.05,87.382C1155.77,102.517 1151.69,131.299 1152.88,144.872C1154.07,158.445 1155.67,165.608 1155.79,178.523C1155.9,191.438 1157.49,208.694 1157.45,219.544" style="fill:none;stroke:rgb(110,83,49);stroke-width:1.3px;"/>
	</g>
</g>
<g xmlns="http://www.w3.org/2000/svg">
	<g>
		<path d="M1426.68,584.665C1426.75,584.665 1426.81,584.608 1426.81,584.539L1426.81,449.448C1426.81,449.379 1426.75,449.323 1426.68,449.323L1224.4,449.323C1224.33,449.323 1224.27,449.379 1224.27,449.448L1224.27,584.539C1224.27,584.608 1224.33,584.665 1224.4,584.665L1426.68,584.665Z" style="fill:rgb(130,100,58);stroke:black;stroke-width:1.3px;"/>
		<path d="M1275.29,450.663C1275.01,465.799 1273.78,491.848 1274.97,505.421C1276.16,518.994 1275.52,531.39 1275.63,544.305C1275.75,557.22 1276.57,572.517 1276.53,583.366" style="fill:none;stroke:rgb(110,83,49);stroke-width:1.3px;"/>
		<path d="M1248.81,450.781C1248.53,465.916 1247.53,490.275 1248.71,503.848C1249.9,517.421 1249.23,532.421 1249.35,545.336C1249.46,558.25 1249.27,572.548 1249.23,583.398" style="fill:none;stroke:rgb(110,83,49);stroke-width:1.3px;"/>
	</g>
	<g>
		<path d="M1425.97,221.778C1426.04,221.778 1426.1,221.721 1426.1,221.652L1426.1,86.562C1426.1,86.492 1426.04,86.436 1425.97,86.436L1223.69,86.436C1223.62,86.436 1223.56,86.492 1223.56,86.562L1223.56,221.652C1223.56,221.721 1223.62,221.778 1223.69,221.778L1425.97,221.778Z" style="fill:rgb(130,100,58);stroke:black;stroke-width:1.3px;"/>
		<path d="M1274.58,87.776C1274.3,102.912 1273.07,128.961 1274.26,142.534C1275.45,156.107 1274.81,168.504 1274.92,181.418C1275.04,194.333 1275.86,209.63 1275.82,220.479" style="fill:none;stroke:rgb(110,83,49);stroke-width:1.3px;"/>
		<path d="M1248.1,87.894C1247.82,103.029 1246.82,127.388 1248,140.961C1249.19,154.534 1248.52,169.534 1248.64,182.449C1248.75,195.363 1248.56,209.661 1248.52,220.511" style="fill:none;stroke:rgb(110,83,49);stroke-width:1.3px;"/>
	</g>
</g>
<g xmlns="http://www.w3.org/2000/svg">
	<g>
		<path d="M973.289,584.665C973.358,584.665 973.414,584.608 973.414,584.539L973.414,449.448C973.414,449.379 973.358,449.323 973.289,449.323L771.007,449.323C770.938,449.323 770.882,449.379 770.882,449.448L770.882,584.539C770.882,584.608 770.938,584.665 771.007,584.665L973.289,584.665Z" style="fill:rgb(130,100,58);stroke:black;stroke-width:1.3px;"/>
		<path d="M821.898,450.663C821.622,465.799 820.388,491.848 821.576,505.421C822.764,518.994 822.125,531.39 822.241,544.305C822.357,557.22 823.181,572.517 823.135,583.366" style="fill:none;stroke:rgb(110,83,49);stroke-width:1.3px;"/>
		<path d="M795.416,450.781C795.14,465.916 794.134,490.275 795.322,503.848C796.51,517.421 795.838,532.421 795.954,545.336C796.07,558.25 795.879,572.548 795.833,583.398" style="fill:none;stroke:rgb(110,83,49);stroke-width:1.3px;"/>
		<path d="M849.672,450.648C849.395,465.783 849.319,500.049 850.507,513.622C851.695,527.195 850.574,533.999 850.69,546.913C850.806,559.828 851.266,572.587 851.22,583.437" style="fill:none;stroke:rgb(110,83,49);stroke-width:1.3px;"/>
		<path d="M952.867,451.031C952.591,466.167 949.369,493.502 950.557,507.075C951.745,520.648 953.347,527.811 953.463,540.725C953.579,553.64 952.713,572.546 952.667,583.396" style="fill:none;stroke:rgb(110,83,49);stroke-width:1.3px;"/>
		<path d="M877.5,450.847C877.224,465.982 877.534,491.379 878.722,504.952C879.91,518.525 876.189,528.022 876.305,540.937C876.421,553.852 878.429,571.764 878.383,582.614" style="fill:none;stroke:rgb(110,83,49);stroke-width:1.3px;"/>
		<path d="M904.415,451.239C904.138,466.374 901.388,489.07 902.576,502.643C903.764,516.216 902.544,528.74 902.66,541.654C902.776,554.569 904.89,570.631 904.844,581.481" style="fill:none;stroke:rgb(110,83,49);stroke-width:1.3px;"/>
		<path d="M928.939,450.269C928.662,465.404 924.584,494.186 925.772,507.759C926.96,521.332 928.562,528.495 928.678,541.41C928.794,554.324 930.387,571.581 930.341,582.431" style="fill:none;stroke:rgb(110,83,49);stroke-width:1.3px;"/>
	</g>
	<g>
		<path d="M972.578,221.778C972.648,221.778 972.704,221.721 972.704,221.652L972.704,86.562C972.704,86.492 972.648,86.436 972.578,86.436L770.297,86.436C770.228,86.436 770.172,86.492 770.172,86.562L770.172,221.652C770.172,221.721 770.228,221.778 770.297,221.778L972.578,221.778Z" style="fill:rgb(130,100,58);stroke:black;stroke-width:1.3px;"/>
		<path d="M821.188,87.776C820.912,102.912 819.678,128.961 820.866,142.534C822.054,156.107 821.415,168.504 821.531,181.418C821.647,194.333 822.471,209.63 822.425,220.479" style="fill:none;stroke:rgb(110,83,49);stroke-width:1.3px;"/>
		<path d="M794.706,87.894C794.43,103.029 793.424,127.388 794.612,140.961C795.8,154.534 795.128,169.534 795.244,182.449C795.36,195.363 795.169,209.661 795.123,220.511" style="fill:none;stroke:rgb(110,83,49);stroke-width:1.3px;"/>
		<path d="M848.962,87.761C848.685,102.896 848.609,137.162 849.797,150.735C850.985,164.308 849.864,171.112 849.98,184.026C850.096,196.941 850.555,209.7 850.509,220.55" style="fill:none;stroke:rgb(110,83,49);stroke-width:1.3px;"/>
		<path d="M952.157,88.144C951.881,103.28 948.658,130.615 949.847,144.188C951.035,157.761 952.637,164.924 952.753,177.838C952.869,190.753 952.003,209.659 951.957,220.509" style="fill:none;stroke:rgb(110,83,49);stroke-width:1.3px;"/>
		<path d="M876.79,87.96C876.513,103.095 876.824,128.492 878.012,142.065C879.2,155.638 875.479,165.135 875.595,178.05C875.711,190.965 877.719,208.878 877.673,219.727" style="fill:none;stroke:rgb(110,83,49);stroke-width:1.3px;"/>
		<path d="M903.705,88.352C903.428,103.487 900.678,126.183 901.866,139.756C903.054,153.329 901.834,165.853 901.95,178.768C902.066,191.682 904.18,207.744 904.134,218.594" style="fill:none;stroke:rgb(110,83,49);stroke-width:1.3px;"/>
		<path d="M928.228,87.382C927.952,102.517 923.874,131.299 925.062,144.872C926.25,158.445 927.852,165.608 927.968,178.523C928.084,191.438 929.676,208.694 929.63,219.544" style="fill:none;stroke:rgb(110,83,49);stroke-width:1.3px;"/>
	</g>
</g>
<rect x="-3.261" y="244.293" width="1284.33" height="26.756" style="fill:rgb(130,100,58);stroke:black;stroke-width:1.3px;"/>
<path d="M219.483,433.678C219.78,433.678 220.021,433.436 220.021,433.139L220.021,391.483C220.021,391.185 219.78,390.944 219.483,390.944L155.884,390.944C155.586,390.944 155.345,391.185 155.345,391.483L155.345,433.139C155.345,433.436 155.586,433.678 155.884,433.678L219.483,433.678ZM150.558,433.678C150.855,433.678 151.097,433.436 151.097,433.139L151.097,391.483C151.097,391.185 150.855,390.944 150.558,390.944L86.959,390.944C86.662,390.944 86.42,391.185 86.42,391.483L86.42,433.139C86.42,433.436 86.662,433.678 86.959,433.678L150.558,433.678ZM288.407,433.678C288.704,433.678 288.946,433.436 288.946,433.139L288.946,391.483C288.946,391.185 288.704,390.944 288.407,390.944L224.808,390.944C224.511,390.944 224.269,391.185 224.269,391.483L224.269,433.139C224.269,433.436 224.511,433.678 224.808,433.678L288.407,433.678ZM1200.68,433.678C1200.98,433.678 1201.22,433.436 1201.22,433.139L1201.22,391.483C1201.22,391.185 1200.98,390.944 1200.68,390.944L1137.09,390.944C1136.79,390.944 1136.55,391.185 1136.55,391.483L1136.55,433.139C1136.55,433.436 1136.79,433.678 1137.09,433.678L1200.68,433.678ZM1131.76,433.678C1132.06,433.678 1132.3,433.436 1132.3,433.139L1132.3,391.483C1132.3,391.185 1132.06,390.944 1131.76,390.944L1068.16,390.944C1067.86,390.944 1067.62,391.185 1067.62,391.483L1067.62,433.139C1067.62,433.436 1067.86,433.678 1068.16,433.678L1131.76,433.678ZM1062.84,433.678C1063.13,433.678 1063.37,433.436 1063.37,433.139L1063.37,391.483C1063.37,391.185 1063.13,390.944 1062.84,390.944L999.237,390.944C998.939,390.944 998.698,391.185 998.698,391.483L998.698,433.139C998.698,433.436 998.939,433.678 999.237,433.678L1062.84,433.678ZM745.069,433.678C745.367,433.678 745.608,433.436 745.608,433.139L745.608,391.483C745.608,391.185 745.367,390.944 745.069,390.944L681.471,390.944C681.173,390.944 680.932,391.185 680.932,391.483L680.932,433.139C680.932,433.436 681.173,433.678 681.471,433.678L745.069,433.678ZM607.22,433.678C607.518,433.678 607.759,433.436 607.759,433.139L607.759,391.483C607.759,391.185 607.518,390.944 607.22,390.944L543.622,390.944C543.324,390.944 543.083,391.185 543.083,391.483L543.083,433.139C543.083,433.436 543.324,433.678 543.622,433.678L607.22,433.678ZM676.145,433.678C676.442,433.678 676.684,433.436 676.684,433.139L676.684,391.483C676.684,391.185 676.442,390.944 676.145,390.944L612.546,390.944C612.249,390.944 612.007,391.185 612.007,391.483L612.007,433.139C612.007,433.436 612.249,433.678 612.546,433.678L676.145,433.678ZM1357.34,433.678C1357.63,433.678 1357.88,433.436 1357.88,433.139L1357.88,391.483C1357.88,391.185 1357.63,390.944 1357.34,390.944L1293.74,390.944C1293.44,390.944 1293.2,391.185 1293.2,391.483L1293.2,433.139C1293.2,433.436 1293.44,433.678 1293.74,433.678L1357.34,433.678ZM1288.41,433.678C1288.71,433.678 1288.95,433.436 1288.95,433.139L1288.95,391.483C1288.95,391.185 1288.71,390.944 1288.41,390.944L1224.81,390.944C1224.52,390.944 1224.27,391.185 1224.27,391.483L1224.27,433.139C1224.27,433.436 1224.52,433.678 1224.81,433.678L1288.41,433.678ZM1426.26,433.678C1426.56,433.678 1426.8,433.436 1426.8,433.139L1426.8,391.483C1426.8,391.185 1426.56,390.944 1426.26,390.944L1362.66,390.944C1362.36,390.944 1362.12,391.185 1362.12,391.483L1362.12,433.139C1362.12,433.436 1362.36,433.678 1362.66,433.678L1426.26,433.678ZM516.206,433.678C516.503,433.678 516.745,433.436 516.745,433.139L516.745,391.483C516.745,391.185 516.503,390.944 516.206,390.944L452.607,390.944C452.31,390.944 452.068,391.185 452.068,391.483L452.068,433.139C452.068,433.436 452.31,433.678 452.607,433.678L516.206,433.678ZM378.357,433.678C378.655,433.678 378.896,433.436 378.896,433.139L378.896,391.483C378.896,391.185 378.655,390.944 378.357,390.944L314.758,390.944C314.461,390.944 314.219,391.185 314.219,391.483L314.219,433.139C314.219,433.436 314.461,433.678 314.758,433.678L378.357,433.678ZM447.282,433.678C447.579,433.678 447.821,433.436 447.821,433.139L447.821,391.483C447.821,391.185 447.579,390.944 447.282,390.944L383.683,390.944C383.385,390.944 383.144,391.185 383.144,391.483L383.144,433.139C383.144,433.436 383.385,433.678 383.683,433.678L447.282,433.678ZM61.852,433.678C62.149,433.678 62.391,433.436 62.391,433.139L62.391,391.483C62.391,391.185 62.149,390.944 61.852,390.944L-1.747,390.944C-2.044,390.944 -2.286,391.185 -2.286,391.483L-2.286,433.139C-2.286,433.436 -2.044,433.678 -1.747,433.678L61.852,433.678ZM-75.997,433.678C-75.7,433.678 -75.458,433.436 -75.458,433.139L-75.458,391.483C-75.458,391.185 -75.7,390.944 -75.997,390.944L-139.596,390.944C-139.893,390.944 -140.135,391.185 -140.135,391.483L-140.135,433.139C-140.135,433.436 -139.893,433.678 -139.596,433.678L-75.997,433.678ZM-7.073,433.678C-6.775,433.678 -6.534,433.436 -6.534,433.139L-6.534,391.483C-6.534,391.185 -6.775,390.944 -7.073,390.944L-70.671,390.944C-70.969,390.944 -71.21,391.185 -71.21,391.483L-71.21,433.139C-71.21,433.436 -70.969,433.678 -70.671,433.678L-7.073,433.678ZM835.019,433.678C835.317,433.678 835.558,433.436 835.558,433.139L835.558,391.483C835.558,391.185 835.317,390.944 835.019,390.944L771.421,390.944C771.123,390.944 770.882,391.185 770.882,391.483L770.882,433.139C770.882,433.436 771.123,433.678 771.421,433.678L835.019,433.678ZM972.868,433.678C973.166,433.678 973.407,433.436 973.407,433.139L973.407,391.483C973.407,391.185 973.166,390.944 972.868,390.944L909.27,390.944C908.972,390.944 908.731,391.185 908.731,391.483L908.731,433.139C908.731,433.436 908.972,433.678 909.27,433.678L972.868,433.678ZM903.944,433.678C904.241,433.678 904.483,433.436 904.483,433.139L904.483,391.483C904.483,391.185 904.241,390.944 903.944,390.944L840.345,390.944C840.048,390.944 839.806,391.185 839.806,391.483L839.806,433.139C839.806,433.436 840.048,433.678 840.345,433.678L903.944,433.678ZM835.019,386.383C835.317,386.383 835.558,386.142 835.558,385.844L835.558,344.188C835.558,343.891 835.317,343.649 835.019,343.649L771.421,343.649C771.123,343.649 770.882,343.891 770.882,344.188L770.882,385.844C770.882,386.142 771.123,386.383 771.421,386.383L835.019,386.383ZM972.868,386.383C973.166,386.383 973.407,386.142 973.407,385.844L973.407,344.188C973.407,343.891 973.166,343.649 972.868,343.649L909.27,343.649C908.972,343.649 908.731,343.891 908.731,344.188L908.731,385.844C908.731,386.142 908.972,386.383 909.27,386.383L972.868,386.383ZM903.944,386.383C904.241,386.383 904.483,386.142 904.483,385.844L904.483,344.188C904.483,343.891 904.241,343.649 903.944,343.649L840.345,343.649C840.048,343.649 839.806,343.891 839.806,344.188L839.806,385.844C839.806,386.142 840.048,386.383 840.345,386.383L903.944,386.383ZM1200.68,386.383C1200.98,386.383 1201.22,386.142 1201.22,385.844L1201.22,344.188C1201.22,343.891 1200.98,343.649 1200.68,343.649L1137.09,343.649C1136.79,343.649 1136.55,343.891 1136.55,344.188L1136.55,385.844C1136.55,386.142 1136.79,386.383 1137.09,386.383L1200.68,386.383ZM1131.76,386.383C1132.06,386.383 1132.3,386.142 1132.3,385.844L1132.3,344.188C1132.3,343.891 1132.06,343.649 1131.76,343.649L1068.16,343.649C1067.86,343.649 1067.62,343.891 1067.62,344.188L1067.62,385.844C1067.62,386.142 1067.86,386.383 1068.16,386.383L1131.76,386.383ZM1062.84,386.383C1063.13,386.383 1063.37,386.142 1063.37,385.844L1063.37,344.188C1063.37,343.891 1063.13,343.649 1062.84,343.649L999.237,343.649C998.939,343.649 998.698,343.891 998.698,344.188L998.698,385.844C998.698,386.142 998.939,386.383 999.237,386.383L1062.84,386.383ZM219.483,386.383C219.78,386.383 220.021,386.142 220.021,385.844L220.021,344.188C220.021,343.891 219.78,343.649 219.483,343.649L155.884,343.649C155.586,343.649 155.345,343.891 155.345,344.188L155.345,385.844C155.345,386.142 155.586,386.383 155.884,386.383L219.483,386.383ZM150.558,386.383C150.855,386.383 151.097,386.142 151.097,385.844L151.097,344.188C151.097,343.891 150.855,343.649 150.558,343.649L86.959,343.649C86.662,343.649 86.42,343.891 86.42,344.188L86.42,385.844C86.42,386.142 86.662,386.383 86.959,386.383L150.558,386.383ZM288.407,386.383C288.704,386.383 288.946,386.142 288.946,385.844L288.946,344.188C288.946,343.891 288.704,343.649 288.407,343.649L224.808,343.649C224.511,343.649 224.269,343.891 224.269,344.188L224.269,385.844C224.269,386.142 224.511,386.383 224.808,386.383L288.407,386.383ZM-7.073,386.383C-6.775,386.383 -6.534,386.142 -6.534,385.844L-6.534,344.188C-6.534,343.891 -6.775,343.649 -7.073,343.649L-70.671,343.649C-70.969,343.649 -71.21,343.891 -71.21,344.188L-71.21,385.844C-71.21,386.142 -70.969,386.383 -70.671,386.383L-7.073,386.383ZM-75.997,386.383C-75.7,386.383 -75.458,386.142 -75.458,385.844L-75.458,344.188C-75.458,343.891 -75.7,343.649 -75.997,343.649L-139.596,343.649C-139.893,343.649 -140.135,343.891 -140.135,344.188L-140.135,385.844C-140.135,386.142 -139.893,386.383 -139.596,386.383L-75.997,386.383ZM61.852,386.383C62.149,386.383 62.391,386.142 62.391,385.844L62.391,344.188C62.391,343.891 62.149,343.649 61.852,343.649L-1.747,343.649C-2.044,343.649 -2.286,343.891 -2.286,344.188L-2.286,385.844C-2.286,386.142 -2.044,386.383 -1.747,386.383L61.852,386.383ZM745.069,386.383C745.367,386.383 745.608,386.142 745.608,385.844L745.608,344.188C745.608,343.891 745.367,343.649 745.069,343.649L681.471,343.649C681.173,343.649 680.932,343.891 680.932,344.188L680.932,385.844C680.932,386.142 681.173,386.383 681.471,386.383L745.069,386.383ZM607.22,386.383C607.518,386.383 607.759,386.142 607.759,385.844L607.759,344.188C607.759,343.891 607.518,343.649 607.22,343.649L543.622,343.649C543.324,343.649 543.083,343.891 543.083,344.188L543.083,385.844C543.083,386.142 543.324,386.383 543.622,386.383L607.22,386.383ZM676.145,386.383C676.442,386.383 676.684,386.142 676.684,385.844L676.684,344.188C676.684,343.891 676.442,343.649 676.145,343.649L612.546,343.649C612.249,343.649 612.007,343.891 612.007,344.188L612.007,385.844C612.007,386.142 612.249,386.383 612.546,386.383L676.145,386.383ZM1426.26,386.383C1426.56,386.383 1426.8,386.142 1426.8,385.844L1426.8,344.188C1426.8,343.891 1426.56,343.649 1426.26,343.649L1362.66,343.649C1362.36,343.649 1362.12,343.891 1362.12,344.188L1362.12,385.844C1362.12,386.142 1362.36,386.383 1362.66,386.383L1426.26,386.383ZM1288.41,386.383C1288.71,386.383 1288.95,386.142 1288.95,385.844L1288.95,344.188C1288.95,343.891 1288.71,343.649 1288.41,343.649L1224.81,343.649C1224.52,343.649 1224.27,343.891 1224.27,344.188L1224.27,385.844C1224.27,386.142 1224.52,386.383 1224.81,386.383L1288.41,386.383ZM1357.34,386.383C1357.63,386.383 1357.88,386.142 1357.88,385.844L1357.88,344.188C1357.88,343.891 1357.63,343.649 1357.34,343.649L1293.74,343.649C1293.44,343.649 1293.2,343.891 1293.2,344.188L1293.2,385.844C1293.2,386.142 1293.44,386.383 1293.74,386.383L1357.34,386.383ZM447.282,386.383C447.579,386.383 447.821,386.142 447.821,385.844L447.821,344.188C447.821,343.891 447.579,343.649 447.282,343.649L383.683,343.649C383.385,343.649 383.144,343.891 383.144,344.188L383.144,385.844C383.144,386.142 383.385,386.383 383.683,386.383L447.282,386.383ZM378.357,386.383C378.655,386.383 378.896,386.142 378.896,385.844L378.896,344.188C378.896,343.891 378.655,343.649 378.357,343.649L314.758,343.649C314.461,343.649 314.219,343.891 314.219,344.188L314.219,385.844C314.219,386.142 314.461,386.383 314.758,386.383L378.357,386.383ZM516.206,386.383C516.503,386.383 516.745,386.142 516.745,385.844L516.745,344.188C516.745,343.891 516.503,343.649 516.206,343.649L452.607,343.649C452.31,343.649 452.068,343.891 452.068,344.188L452.068,385.844C452.068,386.142 452.31,386.383 452.607,386.383L516.206,386.383ZM447.282,338.689C447.579,338.689 447.821,338.448 447.821,338.15L447.821,296.494C447.821,296.197 447.579,295.955 447.282,295.955L383.683,295.955C383.385,295.955 383.144,296.197 383.144,296.494L383.144,338.15C383.144,338.448 383.385,338.689 383.683,338.689L447.282,338.689ZM378.357,338.689C378.655,338.689 378.896,338.448 378.896,338.15L378.896,296.494C378.896,296.197 378.655,295.955 378.357,295.955L314.758,295.955C314.461,295.955 314.219,296.197 314.219,296.494L314.219,338.15C314.219,338.448 314.461,338.689 314.758,338.689L378.357,338.689ZM516.206,338.689C516.503,338.689 516.745,338.448 516.745,338.15L516.745,296.494C516.745,296.197 516.503,295.955 516.206,295.955L452.607,295.955C452.31,295.955 452.068,296.197 452.068,296.494L452.068,338.15C452.068,338.448 452.31,338.689 452.607,338.689L516.206,338.689ZM288.407,338.689C288.704,338.689 288.946,338.448 288.946,338.15L288.946,296.494C288.946,296.197 288.704,295.955 288.407,295.955L224.808,295.955C224.511,295.955 224.269,296.197 224.269,296.494L224.269,338.15C224.269,338.448 224.511,338.689 224.808,338.689L288.407,338.689ZM150.558,338.689C150.855,338.689 151.097,338.448 151.097,338.15L151.097,296.494C151.097,296.197 150.855,295.955 150.558,295.955L86.959,295.955C86.662,295.955 86.42,296.197 86.42,296.494L86.42,338.15C86.42,338.448 86.662,338.689 86.959,338.689L150.558,338.689ZM219.483,338.689C219.78,338.689 220.021,338.448 220.021,338.15L220.021,296.494C220.021,296.197 219.78,295.955 219.483,295.955L155.884,295.955C155.586,295.955 155.345,296.197 155.345,296.494L155.345,338.15C155.345,338.448 155.586,338.689 155.884,338.689L219.483,338.689ZM61.852,338.689C62.149,338.689 62.391,338.448 62.391,338.15L62.391,296.494C62.391,296.197 62.149,295.955 61.852,295.955L-1.747,295.955C-2.044,295.955 -2.286,296.197 -2.286,296.494L-2.286,338.15C-2.286,338.448 -2.044,338.689 -1.747,338.689L61.852,338.689ZM-75.997,338.689C-75.7,338.689 -75.458,338.448 -75.458,338.15L-75.458,296.494C-75.458,296.197 -75.7,295.955 -75.997,295.955L-139.596,295.955C-139.893,295.955 -140.135,296.197 -140.135,296.494L-140.135,338.15C-140.135,338.448 -139.893,338.689 -139.596,338.689L-75.997,338.689ZM-7.073,338.689C-6.775,338.689 -6.534,338.448 -6.534,338.15L-6.534,296.494C-6.534,296.197 -6.775,295.955 -7.073,295.955L-70.671,295.955C-70.969,295.955 -71.21,296.197 -71.21,296.494L-71.21,338.15C-71.21,338.448 -70.969,338.689 -70.671,338.689L-7.073,338.689ZM676.145,338.689C676.442,338.689 676.684,338.448 676.684,338.15L676.684,296.494C676.684,296.197 676.442,295.955 676.145,295.955L612.546,295.955C612.249,295.955 612.007,296.197 612.007,296.494L612.007,338.15C612.007,338.448 612.249,338.689 612.546,338.689L676.145,338.689ZM607.22,338.689C607.518,338.689 607.759,338.448 607.759,338.15L607.759,296.494C607.759,296.197 607.518,295.955 607.22,295.955L543.622,295.955C543.324,295.955 543.083,296.197 543.083,296.494L543.083,338.15C543.083,338.448 543.324,338.689 543.622,338.689L607.22,338.689ZM745.069,338.689C745.367,338.689 745.608,338.448 745.608,338.15L745.608,296.494C745.608,296.197 745.367,295.955 745.069,295.955L681.471,295.955C681.173,295.955 680.932,296.197 680.932,296.494L680.932,338.15C680.932,338.448 681.173,338.689 681.471,338.689L745.069,338.689ZM1357.34,338.689C1357.63,338.689 1357.88,338.448 1357.88,338.15L1357.88,296.494C1357.88,296.197 1357.63,295.955 1357.34,295.955L1293.74,295.955C1293.44,295.955 1293.2,296.197 1293.2,296.494L1293.2,338.15C1293.2,338.448 1293.44,338.689 1293.74,338.689L1357.34,338.689ZM1288.41,338.689C1288.71,338.689 1288.95,338.448 1288.95,338.15L1288.95,296.494C1288.95,296.197 1288.71,295.955 1288.41,295.955L1224.81,295.955C1224.52,295.955 1224.27,296.197 1224.27,296.494L1224.27,338.15C1224.27,338.448 1224.52,338.689 1224.81,338.689L1288.41,338.689ZM1426.26,338.689C1426.56,338.689 1426.8,338.448 1426.8,338.15L1426.8,296.494C1426.8,296.197 1426.56,295.955 1426.26,295.955L1362.66,295.955C1362.36,295.955 1362.12,296.197 1362.12,296.494L1362.12,338.15C1362.12,338.448 1362.36,338.689 1362.66,338.689L1426.26,338.689ZM972.868,338.689C973.166,338.689 973.407,338.448 973.407,338.15L973.407,296.494C973.407,296.197 973.166,295.955 972.868,295.955L909.27,295.955C908.972,295.955 908.731,296.197 908.731,296.494L908.731,338.15C908.731,338.448 908.972,338.689 909.27,338.689L972.868,338.689ZM835.019,338.689C835.317,338.689 835.558,338.448 835.558,338.15L835.558,296.494C835.558,296.197 835.317,295.955 835.019,295.955L771.421,295.955C771.123,295.955 770.882,296.197 770.882,296.494L770.882,338.15C770.882,338.448 771.123,338.689 771.421,338.689L835.019,338.689ZM903.944,338.689C904.241,338.689 904.483,338.448 904.483,338.15L904.483,296.494C904.483,296.197 904.241,295.955 903.944,295.955L840.345,295.955C840.048,295.955 839.806,296.197 839.806,296.494L839.806,338.15C839.806,338.448 840.048,338.689 840.345,338.689L903.944,338.689ZM1131.76,338.689C1132.06,338.689 1132.3,338.448 1132.3,338.15L1132.3,296.494C1132.3,296.197 1132.06,295.955 1131.76,295.955L1068.16,295.955C1067.86,295.955 1067.62,296.197 1067.62,296.494L1067.62,338.15C1067.62,338.448 1067.86,338.689 1068.16,338.689L1131.76,338.689ZM1062.84,338.689C1063.13,338.689 1063.37,338.448 1063.37,338.15L1063.37,296.494C1063.37,296.197 1063.13,295.955 1062.84,295.955L999.237,295.955C998.939,295.955 998.698,296.197 998.698,296.494L998.698,338.15C998.698,338.448 998.939,338.689 999.237,338.689L1062.84,338.689ZM1200.68,338.689C1200.98,338.689 1201.22,338.448 1201.22,338.15L1201.22,296.494C1201.22,296.197 1200.98,295.955 1200.68,295.955L1137.09,295.955C1136.79,295.955 1136.55,296.197 1136.55,296.494L1136.55,338.15C1136.55,338.448 1136.79,338.689 1137.09,338.689L1200.68,338.689Z" style="fill:rgb(244,240,212);fill-opacity:0.8;stroke:black;stroke-width:1.5px;"/>
</g><g id="piece-floor-planks"><path d="M1284.52,720L1284.52,606.004L-4.741,606.004L-4.741,720L1284.52,720Z" style="fill:rgb(92,77,54);"/>
<rect x="-6.179" y="600.965" width="1324.18" height="4.627" style="fill:rgb(92,77,54);stroke:black;stroke-width:1px;"/>
<path d="M1284.52,719.444L1284.52,601.004L-4.741,601.004L-4.741,719.444L1284.52,719.444Z" style="fill-opacity:0.15;"/>
<path d="M-25.756,605.368L-320.773,719.441L-241.57,719.441L28.94,605.368L-25.756,605.368ZM334.268,605.368L200.56,719.441L279.763,719.441L388.964,605.368L334.268,605.368ZM394.184,605.368L287.321,719.441L366.524,719.441L448.881,605.368L394.184,605.368ZM694.637,605.368L722.392,719.441L801.595,719.441L749.334,605.368L694.637,605.368ZM874.696,605.368L983.127,719.441L1062.33,719.441L929.393,605.368L874.696,605.368ZM936.333,605.368L1072.38,719.441L1151.58,719.441L991.029,605.368L936.333,605.368ZM1056.38,605.368L1246.22,719.441L1325.42,719.441L1111.08,605.368L1056.38,605.368ZM1236.44,605.368L1506.95,719.441L1586.16,719.441L1291.14,605.368L1236.44,605.368ZM33.847,605.368L-234.464,719.441L-155.261,719.441L88.544,605.368L33.847,605.368ZM94.074,605.368L-147.252,719.441L-68.049,719.441L148.771,605.368L94.074,605.368ZM153.991,605.368L-60.491,719.441L18.712,719.441L208.687,605.368L153.991,605.368ZM214.125,605.368L26.587,719.441L105.79,719.441L268.821,605.368L214.125,605.368ZM454.756,605.368L375.033,719.441L454.236,719.441L509.453,605.368L454.756,605.368ZM514.36,605.368L461.342,719.441L540.545,719.441L569.056,605.368L514.36,605.368ZM574.587,605.368L548.553,719.441L627.756,719.441L629.283,605.368L574.587,605.368ZM274.041,605.368L113.348,719.441L192.551,719.441L328.738,605.368L274.041,605.368ZM634.503,605.368L635.315,719.441L714.518,719.441L689.199,605.368L634.503,605.368ZM754.553,605.368L809.154,719.441L888.357,719.441L809.25,605.368L754.553,605.368ZM814.78,605.368L896.365,719.441L975.568,719.441L869.477,605.368L814.78,605.368ZM996.249,605.368L1159.14,719.441L1238.34,719.441L1050.95,605.368L996.249,605.368ZM1116.3,605.368L1332.98,719.441L1412.18,719.441L1171,605.368L1116.3,605.368ZM1176.53,605.368L1420.19,719.441L1499.39,719.441L1231.22,605.368L1176.53,605.368Z" style="fill:rgb(141,127,79);stroke:black;stroke-width:0.65px;"/>
</g><g id="piece-ceiling-with-rafters"><path d="M1281.37,65.546L1281.37,-4.113L-1.296,-4.113L-1.296,65.546L1281.37,65.546Z" style="fill:rgb(130,100,58);stroke:black;stroke-width:1px;"/>
<path d="M1279.69,65.546L1279.69,-4.113L-0.296,-4.113L-0.296,65.546L1279.69,65.546Z" style="fill-opacity:0.1;"/>
<path d="M261.271,-28.461L229.163,-28.461L287.787,68.205L313.36,68.205L313.274,65.68L261.271,-28.461Z" style="fill:rgb(92,77,54);stroke:black;stroke-width:1.3px;"/>
<path d="M526.455,-28.088L494.347,-28.088L515.516,67.578L543.089,67.578L526.455,-28.088Z" style="fill:rgb(92,77,54);stroke:black;stroke-width:1.3px;"/>
<path d="M791.029,-28.833L758.921,-28.833L742.72,66.833L770.294,66.833L791.029,-28.833Z" style="fill:rgb(92,77,54);stroke:black;stroke-width:1.3px;"/>
<path d="M1054.54,-28.833L1022.43,-28.833L972.993,65.451L973.009,67.833L998.582,67.833L1054.54,-28.833Z" style="fill:rgb(92,77,54);stroke:black;stroke-width:1.3px;"/>
<path d="M1325.82,-29.458L1291.71,-29.458L1199.61,64.802L1199.94,68.208L1224.83,68.208L1325.82,-29.458Z" style="fill:rgb(92,77,54);stroke:black;stroke-width:1.3px;"/>
<path d="M-3.268,-29.837L-37.376,-29.837L60.613,67.829L86.186,67.829L85.899,65.438L-3.268,-29.837Z" style="fill:rgb(92,77,54);stroke:black;stroke-width:1.3px;"/>
<path d="M256.271,-31.461L227.163,-28.461L284.787,68.205L311.36,68.205L256.271,-31.461Z" style="fill-opacity:0.1;"/>
<path d="M524.455,-30.088L492.347,-28.088L512.516,67.578L542.089,67.578L524.455,-30.088Z" style="fill-opacity:0.1;"/>
<path d="M792.401,-28.458L760.293,-30.458L743.874,66.935L772.448,66.935L792.401,-28.458Z" style="fill-opacity:0.1;"/>
<path d="M1056.54,-28.833L1026.43,-31.833L974.009,67.833L1000.58,67.833L1056.54,-28.833Z" style="fill-opacity:0.1;"/>
<path d="M1328.82,-29.458L1297.71,-32.458L1199.94,68.208L1226.83,68.208L1328.82,-29.458Z" style="fill-opacity:0.1;"/>
<path d="M-9.268,-32.837L-41.376,-29.837L58.166,67.92L85.739,67.92L-9.268,-32.837Z" style="fill-opacity:0.1;"/>
</g>

    </svg>