<?xml version="1.0" encoding="UTF-8" standalone="no"?>
<!DOCTYPE svg PUBLIC "-//W3C//DTD SVG 1.1//EN" "http://www.w3.org/Graphics/SVG/1.1/DTD/svg11.dtd">
<svg width="100%" height="100%" viewBox="0 0 2048 2048" version="1.1" xmlns="http://www.w3.org/2000/svg" xmlns:xlink="http://www.w3.org/1999/xlink" xml:space="preserve" xmlns:serif="http://www.serif.com/" style="fill-rule:evenodd;clip-rule:evenodd;stroke-linejoin:round;stroke-miterlimit:2;">
    <g>
        <g>
            <path d="M1491.98,1195.49L1415.96,1271.5L1415.96,1476.16C1415.96,1523.01 1377.92,1561.03 1331.09,1561.03L398.675,1561.03C351.831,1561.03 313.798,1523.01 313.798,1476.16L313.798,563.057C313.798,516.212 351.831,478.182 398.675,478.182L1331.09,478.182C1377.92,478.182 1415.96,516.212 1415.96,563.057L1415.96,1032.81L1491.98,956.795L1491.98,570.724C1491.98,478.874 1417.4,404.302 1325.56,404.302L410.646,404.302C318.793,404.302 244.22,478.874 244.22,570.724L244.22,1477.28C244.22,1569.13 318.793,1643.7 410.646,1643.7L1325.56,1643.7C1417.4,1643.7 1491.98,1569.13 1491.98,1477.28L1491.98,1195.49Z" fill="rgb(255,255,255)"/>
        </g>
        <g>
            <g>
                <path d="M915.551,1034.04C915.551,1002.89 890.27,977.614 859.131,977.614L580.978,977.614C549.839,977.614 524.558,1002.89 524.558,1034.04L524.558,1314.47C524.558,1345.61 549.839,1370.88 580.978,1370.88L859.131,1370.88C890.27,1370.88 915.551,1345.61 915.551,1314.47L915.551,1034.04ZM819.498,1072.04C819.498,1071.1 818.737,1070.34 817.801,1070.34L609.204,1070.34C608.266,1070.34 607.505,1071.1 607.505,1072.04L607.505,1280.52C607.505,1281.46 608.266,1282.22 609.204,1282.22L817.801,1282.22C818.737,1282.22 819.498,1281.46 819.498,1280.52L819.498,1072.04Z" fill="rgb(255,255,255)"/>
                <path d="M819.498,1072.04C819.498,1071.1 818.737,1070.34 817.801,1070.34L609.204,1070.34C608.266,1070.34 607.505,1071.1 607.505,1072.04L607.505,1280.52C607.505,1281.46 608.266,1282.22 609.204,1282.22L817.801,1282.22C818.737,1282.22 819.498,1281.46 819.498,1280.52L819.498,1072.04Z" fill="rgba(255,139,41)"/>
            </g>
            <g>
                <path d="M915.551,733.54C915.551,702.402 890.27,677.122 859.131,677.122L580.978,677.122C549.839,677.122 524.558,702.402 524.558,733.54L524.558,1013.97C524.558,1045.11 549.839,1070.39 580.978,1070.39L859.131,1070.39C890.27,1070.39 915.551,1045.11 915.551,1013.97L915.551,733.54ZM819.498,771.542C819.498,770.606 818.737,769.845 817.801,769.845L609.204,769.845C608.266,769.845 607.505,770.606 607.505,771.542L607.505,980.031C607.505,980.967 608.266,981.728 609.204,981.728L817.801,981.728C818.737,981.728 819.498,980.967 819.498,980.031L819.498,771.542Z" fill="rgb(255,255,255)"/>
                <path d="M819.498,771.542C819.498,770.606 818.737,769.845 817.801,769.845L609.204,769.845C608.266,769.845 607.505,770.606 607.505,771.542L607.505,980.031C607.505,980.967 608.266,981.728 609.204,981.728L817.801,981.728C818.737,981.728 819.498,980.967 819.498,980.031L819.498,771.542Z" fill="rgba(255,139,41)"/>
            </g>
            <g>
                <path d="M1211.64,733.54C1211.64,702.402 1186.36,677.122 1155.22,677.122L877.066,677.122C845.927,677.122 820.648,702.402 820.648,733.54L820.648,1013.97C820.648,1045.11 845.927,1070.39 877.066,1070.39L1155.22,1070.39C1186.36,1070.39 1211.64,1045.11 1211.64,1013.97L1211.64,733.54ZM1115.58,771.542C1115.58,770.606 1114.82,769.845 1113.89,769.845L905.292,769.845C904.355,769.845 903.595,770.606 903.595,771.542L903.595,980.031C903.595,980.967 904.355,981.728 905.292,981.728L1113.89,981.728C1114.82,981.728 1115.58,980.967 1115.58,980.031L1115.58,771.542Z" fill="rgb(255,255,255)"/>
                <path d="M1115.58,771.542C1115.58,770.606 1114.82,769.845 1113.89,769.845L905.292,769.845C904.355,769.845 903.595,770.606 903.595,771.542L903.595,980.031C903.595,980.967 904.355,981.728 905.292,981.728L1113.89,981.728C1114.82,981.728 1115.58,980.967 1115.58,980.031L1115.58,771.542Z" fill="rgba(255,139,41)"/>
            </g>
        </g>
        <g>
            <g>
                <path d="M1228.33,1116.49C1166.34,1178.48 1196.39,1256.73 1228.6,1224.52L1813.39,639.735C1845.63,607.481 1898.01,607.481 1930.27,639.735C1962.52,671.991 1962.52,724.363 1930.27,756.617L1345.48,1341.41C1313.5,1373.39 1391.36,1402.78 1452.99,1341.14L1983.51,810.636C2045.5,748.639 2045.5,647.973 1983.51,585.975C1921.5,523.98 1820.84,523.98 1758.84,585.975L1228.33,1116.49Z" fill="rgb(255,255,255)"/>
                <path d="M1434.06,1304.89C1435.83,1306.48 1437.47,1308.24 1438.93,1310.16C1447.09,1320.64 1448.7,1334.59 1443.75,1346.42C1440.07,1355.48 1432.86,1363.09 1423.05,1366.98L1137.66,1479.91C1125.35,1484.77 1111.99,1482.59 1102.05,1475.26C1088.53,1465.73 1082.75,1447.85 1089.09,1431.8L1202.33,1145.65C1209.78,1126.82 1231.11,1117.59 1249.93,1125.05C1254.96,1127.02 1259.29,1130 1262.82,1133.64L1434.06,1304.89ZM1344.89,1318.27L1250.34,1223.71L1188.41,1380.18L1344.89,1318.27Z" fill="rgb(255,255,255)"/>
            </g>
        </g>
    </g>
</svg>