<?xml version="1.0" encoding="UTF-8" standalone="no"?>
<!DOCTYPE svg PUBLIC "-//W3C//DTD SVG 1.1//EN" "http://www.w3.org/Graphics/SVG/1.1/DTD/svg11.dtd">
<svg width="100%" height="100%" viewBox="0 0 2048 2048" version="1.1" xmlns="http://www.w3.org/2000/svg" xmlns:xlink="http://www.w3.org/1999/xlink" xml:space="preserve" xmlns:serif="http://www.serif.com/" style="fill-rule:evenodd;clip-rule:evenodd;stroke-linejoin:round;stroke-miterlimit:2;">
    <path d="M14.713,1162.78C23.277,1097.88 223.731,1059.58 223.731,1059.58C223.731,1059.58 287.004,980.598 381.88,937.843C460.363,902.476 548.864,905.314 548.864,905.314C548.864,905.314 603.668,789.786 791.318,766.908C1013.62,739.805 1110.35,861.079 1110.35,861.079C1110.35,861.079 1236.2,804.534 1391.79,888.906C1512.21,954.208 1533.46,1015.56 1533.46,1015.56C1533.46,1015.56 1943.06,986.982 2027.45,1169.74C2030.07,1175.42 2031.07,1180.28 2030.56,1185.44C2030.58,1185.25 2030.54,1185.63 2030.56,1185.44C1799.57,1139.56 1420.32,1195.31 1420.32,1195.31C1420.32,1195.31 1373.72,1150.95 1293.98,1134.09C1132.09,1099.87 1068.41,1156.84 1068.41,1156.84C1068.41,1156.84 956.101,1066.18 820.955,1076.22C632.435,1090.22 435.329,1171.85 435.329,1171.85C435.329,1171.85 374.959,1140.34 261.596,1148.55C166.896,1155.41 129.825,1168.9 129.825,1168.9C129.825,1168.9 19.199,1146.2 14.713,1162.78Z" style="fill:white;"/>
    <path d="M14.713,1162.78C19.199,1146.2 129.825,1168.9 129.825,1168.9C129.825,1168.9 166.896,1155.41 261.596,1148.55C374.959,1140.34 435.329,1171.85 435.329,1171.85C435.329,1171.85 632.435,1090.22 820.955,1076.22C956.101,1066.18 1068.41,1156.84 1068.41,1156.84C1068.41,1156.84 1132.09,1099.87 1293.98,1134.09C1373.72,1150.95 1420.32,1195.31 1420.32,1195.31C1420.32,1195.31 1799.57,1139.56 2030.56,1185.44C2029.41,1200.06 2016.54,1212.52 1996.61,1222.28C1963.64,1234.39 1918.59,1244.95 1879.61,1245.98L1878.49,1246.01C1841.84,1246.8 1719.04,1259.62 1679.26,1266.66C1639.48,1273.69 1462.75,1279.71 1405.13,1284.79C1397.54,1285.46 1389.4,1285.79 1380.8,1285.82L1379.63,1285.82C1288.22,1285.9 1146.51,1253.5 1057.32,1251.18C1053.47,1251.08 1049.49,1251.02 1045.4,1251.01L1044.03,1251.01C935.826,1250.93 744.794,1279.76 640.122,1280.44L637.48,1280.45C633.972,1280.46 630.58,1280.43 627.297,1280.37C516.251,1278.3 401.848,1236.56 318.53,1233.57C315.703,1233.46 312.964,1233.41 310.299,1233.39L309.161,1233.39C267.585,1233.35 243.434,1243.24 180.774,1243.44L179.056,1243.44C173.869,1243.45 168.424,1243.38 162.688,1243.24C148.889,1242.9 135.202,1241.28 122.039,1238.67C59.645,1226.18 11,1190.92 14.713,1162.78Z" style="fill:white;fill-opacity:0.62;"/>
</svg>