<?xml version="1.0" encoding="UTF-8" standalone="no"?>
<!DOCTYPE svg PUBLIC "-//W3C//DTD SVG 1.1//EN" "http://www.w3.org/Graphics/SVG/1.1/DTD/svg11.dtd">
<svg width="100%" height="100%" viewBox="0 0 1280 720" version="1.1" xmlns="http://www.w3.org/2000/svg" xmlns:xlink="http://www.w3.org/1999/xlink" xml:space="preserve"  style="fill-rule:evenodd;clip-rule:evenodd;stroke-linecap:round;stroke-linejoin:round;stroke-miterlimit:1.5;">
	<g>
		<circle cx="608.487" cy="353.827" r="233.788" style="fill:rgb(221,129,0);stroke:black;stroke-width:7px;"/>
		<g>
			<path d="M686.569,532.106C685.453,532.806 680.98,556.095 686.683,570.963C698.144,600.838 755.636,617.563 755.636,617.563C690.195,613.624 665.353,622.764 694.349,663.195C680.46,655.989 665.243,646.46 646.344,630.487C641.291,626.218 603.149,619.297 558.124,624.317C550.348,625.184 618.616,604.963 612.224,598.419L608.871,583.545C608.871,583.545 563.615,563.517 548.215,545.433C509.579,500.064 519.187,471.964 521.829,470.697C523.706,469.797 539.918,524.953 607.022,535.188C607.495,535.261 608.951,519.265 615.903,502.244C626.621,476.005 635.149,436.69 621.023,416.135C602.94,389.822 567.129,390.281 528.314,366.492C484.404,339.581 456.752,289.979 466.651,279.231C470.568,274.978 490.11,334.446 553.546,346.991C588.471,353.898 619.158,351.988 619.236,351.768C630.861,318.911 664.352,274.313 669.664,279.872C670.92,281.187 647.956,335.552 652.692,362.273C653.285,365.623 695.659,394.339 691.402,480.441C691.291,482.683 713.057,469.608 731.168,449.486C750.488,428.021 772.833,402.885 773.474,402.807C774.144,402.725 761.365,485.238 686.569,532.106Z" style="fill:rgb(124,76,34);stroke:black;stroke-width:8.33px;"/>
			<path d="M686.569,532.106C685.453,532.806 682.712,566.403 691.752,579.513C702.423,594.988 745.169,618.464 744.711,615.012C732.557,614.297 717.967,616.33 704.248,616.983C694.672,617.439 669.041,634.413 692.258,661.104C697.783,667.457 670.638,644.947 644.682,631.371C629.872,623.625 613.761,621.575 608.575,622.438C608.575,622.438 672.558,600.696 667.631,588.183C657.915,563.502 661.078,530.296 668.03,513.274C678.748,487.035 666.327,441.984 657.059,418.83C639.637,375.309 586.438,351.606 590.658,351.648C625.194,351.99 642.573,357.751 642.583,357.517C643.826,328.413 666.752,277.065 669.664,279.872C670.972,281.134 647.956,335.552 652.692,362.273C653.285,365.623 706.315,393.467 688.116,515.45C687.784,517.67 716.506,490.737 734.617,470.615C753.937,449.15 772.833,402.885 773.474,402.807C774.144,402.725 761.365,485.238 686.569,532.106Z" style="fill-opacity:0.15;"/>
			<path d="M769.674,378.445C769.674,378.445 759.331,358.345 725.4,365.64C697.127,371.719 703.305,389.349 703.305,389.349C703.305,389.349 658.244,392.635 658.563,415.794C658.883,438.954 690.373,441.986 693.294,442.58C719.092,447.831 734.704,437.034 734.704,437.034C734.704,437.034 755.022,453.09 777.337,455.035C798.891,456.913 823.069,455.032 836.05,447.326C848.301,440.053 872.76,422.48 854.678,400.119C827.204,366.144 769.674,378.445 769.674,378.445Z" style="fill:rgb(54,140,54);stroke:black;stroke-width:8.33px;"/>
			<path d="M854.678,400.119C854.085,399.35 848.47,431.015 806.219,439.719C768.363,447.518 744.415,428.259 734.041,428.259C725.265,428.259 704.43,434.571 693.274,432.347C669.135,427.536 658.526,415.559 658.563,415.794C662.216,438.666 681.94,439.492 693.294,442.58C718.698,449.489 734.704,437.034 734.704,437.034C734.704,437.034 755.022,453.09 777.337,455.035C798.891,456.913 823.069,455.032 836.05,447.326C848.301,440.053 872.252,422.881 854.678,400.119Z" style="fill-opacity:0.09;"/>
			<path d="M465.006,460.286C465.006,460.286 465.9,438.437 495.503,430.237C525.106,422.037 546.971,437.256 546.971,437.256C546.971,437.256 563.526,434.427 573.281,438.556C583.037,442.684 594.145,452.955 594.145,452.955C594.145,452.955 622.202,452.16 632.444,459.808C642.297,467.166 655.43,483.538 633.276,498.561C618.997,508.244 598.224,506.439 598.224,506.439C598.224,506.439 585.814,518.806 563.517,518.535C541.58,518.269 531.592,509.534 531.592,509.534C531.592,509.534 527.809,520.239 505.403,521.565C482.996,522.891 475.445,513.525 475.445,513.525C475.445,513.525 448.159,517.626 431.267,503.444C417.732,492.08 424.308,477.526 430.665,471.371C442.88,459.545 465.006,460.286 465.006,460.286Z" style="fill:rgb(54,140,54);stroke:black;stroke-width:8.33px;"/>
			<path d="M431.267,503.444C428.748,501.329 437.942,505.013 454.738,505.637C460.447,505.849 467.469,502.075 474.621,502.503C482.461,502.972 491.526,507.001 500.493,506.929C509.461,506.856 520.279,500.034 529.631,499.803C543.293,499.467 556.835,504.976 569.652,504.009C581.877,503.087 593.46,495.726 603.161,493.92C644.737,486.18 628.203,456.641 632.444,459.808C642.297,467.166 655.43,483.538 633.276,498.561C618.997,508.244 598.224,506.439 598.224,506.439C598.224,506.439 585.814,518.806 563.517,518.535C541.58,518.269 531.592,509.534 531.592,509.534C531.592,509.534 527.809,520.239 505.403,521.565C482.996,522.891 475.445,513.525 475.445,513.525C475.445,513.525 448.159,517.626 431.267,503.444Z" style="fill-opacity:0.09;"/>
			<path d="M412.329,320.855C412.329,320.855 421.055,339.743 454.494,340.022C483.924,340.266 499.058,329.029 499.058,329.029C499.058,329.029 520.87,335.085 539.681,333.4C564.952,331.137 580.491,321.192 580.491,321.192C580.491,321.192 594.864,332.396 619.297,333.941C643.729,335.485 659.59,324.768 659.59,324.768C659.59,324.768 681.65,337.926 707.569,339.78C736.207,341.828 752.817,333.072 752.817,333.072C752.817,333.072 765.307,337.748 785.665,334.898C807.906,331.783 826.25,322.3 824.268,309.639C820.319,284.406 773.187,283.317 773.187,283.317C773.187,283.317 758.429,274.604 745.801,270.618C736.336,267.631 716.445,267.315 716.445,267.315C716.445,267.315 722.408,246.59 688.522,234.477C654.635,222.363 611.961,232.981 611.961,232.981C611.961,232.981 605.125,222.127 577.595,218.541C550.064,214.954 533.904,224.728 533.904,224.728C533.904,224.728 500.879,214.882 471.799,221.471C436.643,229.438 430.963,246.112 430.963,246.112C430.963,246.112 403.467,241.141 392.114,257.068C387.325,263.787 393.247,270.382 393.247,270.382C393.247,270.382 354.777,278.313 360.986,298.949C368.749,324.751 412.329,320.855 412.329,320.855Z" style="fill:rgb(54,140,54);stroke:black;stroke-width:8.33px;"/>
			<path d="M412.329,320.855C412.329,320.855 421.055,339.743 454.494,340.022C483.924,340.266 499.058,329.029 499.058,329.029C499.058,329.029 520.87,335.085 539.681,333.4C564.952,331.137 580.491,321.192 580.491,321.192C580.491,321.192 594.864,332.396 619.297,333.941C643.729,335.485 659.59,324.768 659.59,324.768C659.59,324.768 681.65,337.926 707.569,339.78C736.207,341.828 752.817,333.072 752.817,333.072C752.817,333.072 765.307,337.748 785.665,334.898C807.906,331.783 827.657,321.998 824.268,309.639C818.784,289.635 795.968,287.464 795.968,287.464C795.968,287.464 829.734,325.824 748.237,314.684C738.365,313.335 728.708,321.641 705.903,323.103C684.911,324.45 664.202,309.732 657.426,309.898C647.79,310.133 634.792,317.998 622.623,317.731C601.005,317.258 588.858,308.689 580.557,309.283C566.392,310.296 560.226,315.17 537.079,316.932C515.498,318.574 511.598,314.646 497.761,314.131C483.886,313.613 470.56,322.804 457.766,322.453C444.972,322.103 433.309,317.743 418.223,311.657C406.201,306.807 395.414,312.245 387.67,309.651C363.984,301.717 359.569,294.241 360.986,298.949C368.749,324.751 412.329,320.855 412.329,320.855Z" style="fill-opacity:0.09;"/>
		</g>
	</g>
	<g>
		<path d="M166.555,146.079L191.179,146.079L191.179,33.651L226.819,33.651L226.819,8.217L131.239,8.217L131.239,33.651L166.555,33.651L166.555,146.079Z" style="fill:white;fill-rule:nonzero;stroke:black;stroke-width:7px;stroke-linecap:butt;stroke-miterlimit:2;"/>
		<path d="M259.543,75.609C261.325,69.129 264.889,66.051 275.905,66.051L280.927,66.051C295.345,66.051 297.289,73.341 297.289,83.061L297.289,85.167L262.621,85.167C245.287,85.167 235.243,97.965 235.243,114.975C235.243,131.823 244.963,146.079 263.107,146.079L320.617,146.079L320.617,78.201C320.617,60.705 308.629,43.047 284.491,43.047L272.341,43.047C248.851,43.047 237.349,58.437 236.215,75.609L259.543,75.609ZM256.951,114.975C256.951,108.009 260.515,104.607 263.917,104.607L297.289,104.607L297.289,125.181L263.917,125.181C260.515,125.181 256.951,121.779 256.951,114.975Z" style="fill:white;fill-rule:nonzero;stroke:black;stroke-width:7px;stroke-linecap:butt;stroke-miterlimit:2;"/>
		<path d="M383.797,66.051C398.053,66.051 400.321,73.341 400.321,83.061L400.321,146.079L424.135,146.079L424.135,78.201C424.135,60.705 411.499,43.047 387.523,43.047L376.993,43.047C371.485,43.047 366.301,44.019 361.927,45.639L361.927,43.047L338.113,43.047L338.113,146.079L361.927,146.079L361.927,83.061C361.927,73.341 364.681,66.051 378.937,66.051L383.797,66.051Z" style="fill:white;fill-rule:nonzero;stroke:black;stroke-width:7px;stroke-linecap:butt;stroke-miterlimit:2;"/>
		<path d="M469.819,43.047C451.675,43.047 436.933,55.845 436.933,79.497L436.933,106.389C436.933,130.041 451.675,142.839 469.819,142.839L499.951,142.839L499.951,144.135C499.951,153.207 493.471,158.553 485.371,158.553L442.765,158.553L442.765,181.071L489.097,181.071C508.537,181.071 521.983,168.111 521.983,146.241L521.983,43.047L469.819,43.047ZM499.789,120.321L474.841,120.321C466.741,120.321 460.099,112.869 460.099,103.797L460.099,81.927C460.099,73.017 466.741,65.565 474.841,65.565L499.789,65.565L499.789,120.321Z" style="fill:white;fill-rule:nonzero;stroke:black;stroke-width:7px;stroke-linecap:butt;stroke-miterlimit:2;"/>
		<path d="M627.445,60.543C619.507,60.543 614.647,55.197 614.647,48.393C614.647,36.891 623.071,35.109 633.601,35.109L680.095,35.109L680.095,8.217L623.071,8.217C601.363,8.217 587.107,26.685 587.107,47.097C587.107,75.771 605.089,87.435 632.629,87.435L648.991,87.435C659.197,87.435 667.135,93.591 667.135,104.121C667.135,115.299 658.063,120.483 647.047,120.483L591.481,120.483L591.481,146.079L654.337,146.079C676.855,146.079 692.245,127.935 692.245,104.121C692.245,78.849 675.235,60.543 652.231,60.543L627.445,60.543Z" style="fill:white;fill-rule:nonzero;stroke:black;stroke-width:7px;stroke-linecap:butt;stroke-miterlimit:2;"/>
		<path d="M742.465,43.047C718.975,43.047 704.557,57.789 704.557,80.631L704.557,108.333C704.557,131.175 718.975,146.079 742.465,146.079L750.727,146.079C774.379,146.079 788.797,131.175 788.797,108.333L788.797,80.631C788.797,57.789 774.379,43.047 750.727,43.047L742.465,43.047ZM750.727,66.213C759.313,66.213 765.631,72.531 765.631,81.279L765.631,107.685C765.631,116.433 759.313,122.751 750.727,122.751L742.465,122.751C734.041,122.751 727.561,116.433 727.561,107.685L727.561,81.279C727.561,72.531 734.041,66.213 742.465,66.213L750.727,66.213Z" style="fill:white;fill-rule:nonzero;stroke:black;stroke-width:7px;stroke-linecap:butt;stroke-miterlimit:2;"/>
		<path d="M838.855,43.047C815.365,43.047 800.947,57.789 800.947,80.631L800.947,108.333C800.947,131.175 815.365,146.079 838.855,146.079L847.117,146.079C870.769,146.079 885.187,131.175 885.187,108.333L885.187,80.631C885.187,57.789 870.769,43.047 847.117,43.047L838.855,43.047ZM847.117,66.213C855.703,66.213 862.021,72.531 862.021,81.279L862.021,107.685C862.021,116.433 855.703,122.751 847.117,122.751L838.855,122.751C830.431,122.751 823.951,116.433 823.951,107.685L823.951,81.279C823.951,72.531 830.431,66.213 838.855,66.213L847.117,66.213Z" style="fill:white;fill-rule:nonzero;stroke:black;stroke-width:7px;stroke-linecap:butt;stroke-miterlimit:2;"/>
		<path d="M953.713,146.079L1016.57,146.079C1034.71,146.079 1049.29,129.717 1049.29,109.629L1049.29,44.667C1049.29,24.579 1034.71,8.217 1016.57,8.217L953.713,8.217L953.713,146.079ZM978.985,120.645L978.985,33.489L1010.41,33.489C1018.03,33.489 1024.18,40.455 1024.18,48.717L1024.18,105.417C1024.18,113.841 1018.03,120.645 1010.41,120.645L978.985,120.645Z" style="fill:white;fill-rule:nonzero;stroke:black;stroke-width:7px;stroke-linecap:butt;stroke-miterlimit:2;"/>
		<path d="M1102.43,43.047C1078.94,43.047 1064.52,57.789 1064.52,80.631L1064.52,108.333C1064.52,131.175 1078.94,146.079 1102.43,146.079L1110.69,146.079C1134.34,146.079 1148.76,131.175 1148.76,108.333L1148.76,80.631C1148.76,57.789 1134.34,43.047 1110.69,43.047L1102.43,43.047ZM1110.69,66.213C1119.28,66.213 1125.6,72.531 1125.6,81.279L1125.6,107.685C1125.6,116.433 1119.28,122.751 1110.69,122.751L1102.43,122.751C1094.01,122.751 1087.53,116.433 1087.53,107.685L1087.53,81.279C1087.53,72.531 1094.01,66.213 1102.43,66.213L1110.69,66.213Z" style="fill:white;fill-rule:nonzero;stroke:black;stroke-width:7px;stroke-linecap:butt;stroke-miterlimit:2;"/>
	</g>
</svg>
