<?xml version="1.0" encoding="UTF-8" standalone="no"?>
<!DOCTYPE svg PUBLIC "-//W3C//DTD SVG 1.1//EN" "http://www.w3.org/Graphics/SVG/1.1/DTD/svg11.dtd">
<svg width="100%" height="100%" viewBox="0 0 64 64" version="1.1" xmlns="http://www.w3.org/2000/svg" xmlns:xlink="http://www.w3.org/1999/xlink" xml:space="preserve" xmlns:serif="http://www.serif.com/" style="fill-rule:evenodd;clip-rule:evenodd;stroke-linejoin:round;stroke-miterlimit:2;">
    <g>
        <path d="M28.485,15.862C28.485,15.512 28.2,15.228 27.85,15.228L20.165,15.228C19.815,15.228 19.53,15.512 19.53,15.862L19.53,48.278C19.53,48.628 19.815,48.913 20.165,48.913L27.85,48.913C28.2,48.913 28.485,48.628 28.485,48.278L28.485,15.862Z" style="fill:white;"/>
        <path d="M44.47,15.722C44.47,15.372 44.185,15.087 43.835,15.087L36.15,15.087C35.8,15.087 35.515,15.372 35.515,15.722L35.515,48.138C35.515,48.488 35.8,48.772 36.15,48.772L43.835,48.772C44.185,48.772 44.47,48.488 44.47,48.138L44.47,15.722Z" style="fill:white;"/>
    </g>
</svg>